<svg width="15" height="14" viewBox="0 0 15 14" fill="none" xmlns="http://www.w3.org/2000/svg">
<path fill-rule="evenodd" clip-rule="evenodd" d="M11.8304 5.83078C12 5.67007 12.0447 5.42007 11.9554 5.20578C11.8661 5.00042 11.6607 4.85757 11.4286 4.85757H9.14287V0.857562C9.14287 0.545062 8.88394 0.286133 8.57144 0.286133H6.28572C5.97322 0.286133 5.71429 0.545062 5.71429 0.857562V4.85757H3.42858C3.19643 4.85757 2.99107 5.00042 2.90179 5.20578C2.8125 5.42007 2.85715 5.67007 3.02679 5.83078L7.02679 9.83079C7.13394 9.94686 7.28572 10.0004 7.42858 10.0004C7.57144 10.0004 7.72322 9.94686 7.83037 9.83079L11.8304 5.83078ZM14.8572 13.1433C14.8572 13.6165 14.4732 14.0004 14 14.0004H0.857144C0.383929 14.0004 0 13.6165 0 13.1433V10.2861C0 9.81293 0.383929 9.429 0.857144 9.429H5.00893L6.21429 10.6433C6.54465 10.9647 6.97322 11.1433 7.42858 11.1433C7.88394 11.1433 8.31251 10.9647 8.64287 10.6433L9.85715 9.429H14C14.4732 9.429 14.8572 9.81293 14.8572 10.2861V13.1433ZM10.8572 11.7147C11.1697 11.7147 11.4286 11.9736 11.4286 12.2861C11.4286 12.5986 11.1697 12.8576 10.8572 12.8576C10.5447 12.8576 10.2857 12.5986 10.2857 12.2861C10.2857 11.9736 10.5447 11.7147 10.8572 11.7147ZM13.1429 11.7147C13.4554 11.7147 13.7143 11.9736 13.7143 12.2861C13.7143 12.5986 13.4554 12.8576 13.1429 12.8576C12.8304 12.8576 12.5714 12.5986 12.5714 12.2861C12.5714 11.9736 12.8304 11.7147 13.1429 11.7147Z" fill="#596A73"/>
</svg>
