<svg width="94" height="19" viewBox="0 0 94 19" fill="none" xmlns="http://www.w3.org/2000/svg">
<path d="M0 11.2275H10.3636V14.682H0V11.2275Z" fill="#19283D"/>
<path d="M8.63636 4.31836H19V7.77291H8.63636V4.31836Z" fill="#19283D"/>
<path d="M27.6932 8.417C27.6932 7.16127 28.448 6.41336 29.5604 6.41336C30.6727 6.41336 31.3429 7.13882 31.3343 8.36691V14.7095H34.8476V7.67773C34.8476 5.17836 33.331 3.53227 31.0113 3.53227C29.36 3.53227 28.1958 4.34409 27.7001 5.70173H27.5792V0H24.1816V14.7095H27.6932V8.417Z" fill="#19283D"/>
<path d="M37.9826 18.9988C40.5113 18.9988 41.7687 17.7206 42.3785 15.9174L46.5377 3.83683H42.8379L40.7773 11.7011H40.6616L38.6285 3.82992H34.9529L38.8738 15.2645L38.7374 15.5944C38.3919 16.42 37.6388 16.4338 36.6042 16.097L35.8286 18.6465C36.5192 18.8938 37.2491 19.0133 37.9826 18.9988Z" fill="#19283D"/>
<path d="M47.0749 19H50.5865V13.0737H50.659C51.1046 14.0945 52.0944 15.0204 53.7681 15.0204C56.2105 15.0204 58.1778 13.11 58.1778 9.35491C58.1778 5.46163 56.0947 3.68772 53.7888 3.68772C52.0443 3.68772 51.0891 4.70682 50.6659 5.72072H50.5571V3.83109H47.0749V19ZM50.5156 9.34627C50.5156 7.54472 51.2618 6.43063 52.5469 6.43063C53.832 6.43063 54.5661 7.581 54.5661 9.34627C54.5661 11.1115 53.8476 12.2826 52.5469 12.2826C51.2463 12.2826 50.5156 11.1357 50.5156 9.34627Z" fill="#19283D"/>
<path d="M62.7154 8.417C62.7154 7.16127 63.4685 6.41336 64.5826 6.41336C65.6966 6.41336 66.3634 7.13882 66.3565 8.36691V14.7095H69.868V7.67773C69.868 5.17836 68.3532 3.53227 66.0317 3.53227C64.3805 3.53227 63.2163 4.34409 62.7223 5.70173H62.5996V0H59.2021V14.7095H62.7154V8.417Z" fill="#19283D"/>
<path d="M76.4075 15.0705C79.3024 15.0705 81.2058 13.6714 81.6083 11.5019L78.3835 11.4086C78.1106 12.141 77.392 12.5365 76.4731 12.5365C75.1224 12.5365 74.2898 11.6384 74.2898 10.2911V10.1978H81.6446V9.31863C81.6446 5.69136 79.4319 3.68772 76.3004 3.68772C72.9685 3.68772 70.8266 5.97118 70.8266 9.38772C70.8266 12.9235 72.9391 15.0705 76.4075 15.0705ZM74.2898 8.16136C74.311 7.63124 74.5406 7.13093 74.9288 6.76928C75.317 6.40763 75.8323 6.21391 76.3626 6.23027C77.5198 6.23027 78.3524 7.03345 78.3679 8.16136H74.2898Z" fill="#19283D"/>
<path d="M86.1406 8.57245C86.1406 7.31672 86.8799 6.56882 87.994 6.56882C89.1081 6.56882 89.7679 7.30118 89.761 8.52236V14.8649H93.2726V7.83318C93.2726 5.34763 91.7646 3.68772 89.4449 3.68772C87.8144 3.68772 86.5794 4.51336 86.0906 5.85718H85.9679V3.83281H82.6291V14.8649H86.1406V8.57245Z" fill="#19283D"/>
</svg>
