<svg width="14" height="14" viewBox="0 0 14 14" fill="none" xmlns="http://www.w3.org/2000/svg">
<path fill-rule="evenodd" clip-rule="evenodd" d="M3.07812 10.9219C3.23438 11.0781 3.41667 11.1146 3.625 11.0312L7.3125 9.46875C7.36458 9.44792 7.41667 9.41667 7.46875 9.375L13.6719 3.15625C13.8906 2.9375 14 2.67188 14 2.35938C14 2.04687 13.8906 1.78125 13.6719 1.5625L12.4375 0.328125C12.2187 0.109374 11.9531 0 11.6406 0C11.3281 0 11.0625 0.109374 10.8438 0.328125L4.64062 6.53125C4.58854 6.58333 4.55208 6.64062 4.53125 6.70312L2.96875 10.375C2.88542 10.5833 2.92187 10.7656 3.07812 10.9219ZM13.8359 13.0391C13.7266 12.9297 13.5938 12.875 13.4375 12.875H0.5625C0.406249 12.875 0.273438 12.9297 0.164062 13.0391C0.054687 13.1484 0 13.2812 0 13.4375C0 13.5938 0.054687 13.7266 0.164062 13.8359C0.273438 13.9453 0.406249 14 0.5625 14H13.4375C13.5938 14 13.7266 13.9453 13.8359 13.8359C13.9453 13.7266 14 13.5938 14 13.4375C14 13.2812 13.9453 13.1484 13.8359 13.0391ZM11.6406 1.125L10.6719 2.09375L11.9062 3.32812L12.875 2.35938L11.6406 1.125ZM4.60938 9.39062L5.51562 7.25L9.875 2.89062L11.1094 4.125L6.75 8.48438L4.60938 9.39062Z" fill="#596A73"/>
</svg>
