<svg width="15" height="14" viewBox="0 0 15 14" fill="none" xmlns="http://www.w3.org/2000/svg">
<path d="M4.3335 5.16634H4.8335V4.16634H4.3335V5.16634ZM9.66683 4.16634H9.16683V5.16634H9.66683V4.16634ZM7.00016 9.99967L6.64661 10.3532L7.00016 10.7068L7.35372 10.3532L7.00016 9.99967ZM7.50016 -0.666992V-1.16699H6.50016V-0.666992H7.50016ZM4.68705 6.97945L4.3335 6.6259L3.62639 7.33301L3.97994 7.68656L4.68705 6.97945ZM10.0204 7.68656L10.3739 7.33301L9.66683 6.6259L9.31328 6.97945L10.0204 7.68656ZM4.3335 4.16634H2.3335V5.16634H4.3335V4.16634ZM2.3335 4.16634C0.952687 4.16634 -0.166504 5.28553 -0.166504 6.66634H0.833496C0.833496 5.83782 1.50497 5.16634 2.3335 5.16634V4.16634ZM-0.166504 6.66634V10.6663H0.833496V6.66634H-0.166504ZM-0.166504 10.6663C-0.166504 12.0472 0.952687 13.1663 2.3335 13.1663V12.1663C1.50497 12.1663 0.833496 11.4949 0.833496 10.6663H-0.166504ZM2.3335 13.1663H11.6668V12.1663H2.3335V13.1663ZM11.6668 13.1663C13.0476 13.1663 14.1668 12.0472 14.1668 10.6663H13.1668C13.1668 11.4949 12.4954 12.1663 11.6668 12.1663V13.1663ZM14.1668 10.6663V6.66634H13.1668V10.6663H14.1668ZM14.1668 6.66634C14.1668 5.28553 13.0476 4.16634 11.6668 4.16634V5.16634C12.4954 5.16634 13.1668 5.83782 13.1668 6.66634H14.1668ZM11.6668 4.16634H9.66683V5.16634H11.6668V4.16634ZM7.50016 9.99967V-0.666992H6.50016V9.99967H7.50016ZM3.97994 7.68656L6.64661 10.3532L7.35372 9.64612L4.68705 6.97945L3.97994 7.68656ZM7.35372 10.3532L10.0204 7.68656L9.31328 6.97945L6.64661 9.64612L7.35372 10.3532Z" fill="#8F96A1"/>
</svg>
