<svg width="20" height="18" viewBox="0 0 16 12" fill="none" xmlns="http://www.w3.org/2000/svg">
<path d="M14.6668 1.33301H15.1668V0.833008H14.6668V1.33301ZM14.6668 7.99967V8.49967H15.1668V7.99967H14.6668ZM12.0002 7.99967V7.49967H11.5002V7.99967H12.0002ZM12.0002 10.6663V11.1663H12.5002V10.6663H12.0002ZM1.3335 10.6663H0.833496V11.1663H1.3335V10.6663ZM1.3335 3.99967V3.49967H0.833496V3.99967H1.3335ZM4.00016 3.99967V4.49967H4.50016V3.99967H4.00016ZM4.00016 1.33301V0.833008H3.50016V1.33301H4.00016ZM11.5002 7.99967V8.49967H12.5002V7.99967H11.5002ZM12.0002 3.99967H12.5002V3.49967H12.0002V3.99967ZM4.00016 3.49967H3.50016V4.49967H4.00016V3.49967ZM14.1668 1.33301V7.99967H15.1668V1.33301H14.1668ZM14.6668 7.49967H12.0002V8.49967H14.6668V7.49967ZM11.5002 7.99967V10.6663H12.5002V7.99967H11.5002ZM12.0002 10.1663H1.3335V11.1663H12.0002V10.1663ZM1.8335 10.6663V3.99967H0.833496V10.6663H1.8335ZM1.3335 4.49967H4.00016V3.49967H1.3335V4.49967ZM4.50016 3.99967V1.33301H3.50016V3.99967H4.50016ZM4.00016 1.83301H14.6668V0.833008H4.00016V1.83301ZM6.66683 9.16634C7.67881 9.16634 8.50016 8.34598 8.50016 7.33301H7.50016C7.50016 7.79337 7.12685 8.16634 6.66683 8.16634V9.16634ZM8.50016 7.33301C8.50016 6.32087 7.67897 5.49967 6.66683 5.49967V6.49967C7.12669 6.49967 7.50016 6.87315 7.50016 7.33301H8.50016ZM6.66683 5.49967C5.65469 5.49967 4.8335 6.32087 4.8335 7.33301H5.8335C5.8335 6.87315 6.20697 6.49967 6.66683 6.49967V5.49967ZM4.8335 7.33301C4.8335 8.34598 5.65485 9.16634 6.66683 9.16634V8.16634C6.20681 8.16634 5.8335 7.79337 5.8335 7.33301H4.8335ZM12.5002 7.99967V3.99967H11.5002V7.99967H12.5002ZM12.0002 3.49967H4.00016V4.49967H12.0002V3.49967Z" fill="#8F96A1"/>
</svg>
