<svg width="16" height="15" viewBox="0 0 16 15" fill="none" xmlns="http://www.w3.org/2000/svg">
<path d="M7.99967 10.4997C9.93248 10.4997 11.4997 8.93248 11.4997 6.99967H10.4997C10.4997 8.3802 9.3802 9.49967 7.99967 9.49967V10.4997ZM11.4997 6.99967C11.4997 5.06687 9.93248 3.49967 7.99967 3.49967V4.49967C9.3802 4.49967 10.4997 5.61915 10.4997 6.99967H11.4997ZM7.99967 3.49967C6.06687 3.49967 4.49967 5.06687 4.49967 6.99967H5.49967C5.49967 5.61915 6.61915 4.49967 7.99967 4.49967V3.49967ZM4.49967 6.99967C4.49967 8.93248 6.06687 10.4997 7.99967 10.4997V9.49967C6.61915 9.49967 5.49967 8.3802 5.49967 6.99967H4.49967ZM12.3581 1.93412L9.81279 4.47945L10.5199 5.18656L13.0652 2.64123L12.3581 1.93412ZM10.5199 5.18656L13.0652 2.64123L12.3581 1.93412L9.81279 4.47945L10.5199 5.18656ZM13.0652 11.3581L10.5199 8.81279L9.81279 9.5199L12.3581 12.0652L13.0652 11.3581ZM9.81279 9.5199L12.3581 12.0652L13.0652 11.3581L10.5199 8.81279L9.81279 9.5199ZM2.93412 2.64123L5.47945 5.18656L6.18656 4.47945L3.64123 1.93412L2.93412 2.64123ZM6.18656 4.47945L3.64123 1.93412L2.93412 2.64123L5.47945 5.18656L6.18656 4.47945ZM3.64123 12.0652L6.18656 9.5199L5.47945 8.81279L2.93412 11.3581L3.64123 12.0652ZM5.47945 8.81279L2.93412 11.3581L3.64123 12.0652L6.18656 9.5199L5.47945 8.81279ZM7.99967 14.1663C11.9578 14.1663 15.1663 10.9578 15.1663 6.99967H14.1663C14.1663 10.4055 11.4055 13.1663 7.99967 13.1663V14.1663ZM15.1663 6.99967C15.1663 3.04153 11.9578 -0.166992 7.99967 -0.166992V0.833008C11.4055 0.833008 14.1663 3.59382 14.1663 6.99967H15.1663ZM7.99967 -0.166992C4.04153 -0.166992 0.833008 3.04153 0.833008 6.99967H1.83301C1.83301 3.59382 4.59382 0.833008 7.99967 0.833008V-0.166992ZM0.833008 6.99967C0.833008 10.9578 4.04153 14.1663 7.99967 14.1663V13.1663C4.59382 13.1663 1.83301 10.4055 1.83301 6.99967H0.833008Z" fill="#8F96A1"/>
</svg>
