<svg width="20" height="20" viewBox="0 0 20 20" fill="none" xmlns="http://www.w3.org/2000/svg">
<path d="M4.16797 6.66699C5.54868 6.66699 6.66797 5.5477 6.66797 4.16699C6.66797 2.78628 5.54868 1.66699 4.16797 1.66699C2.78726 1.66699 1.66797 2.78628 1.66797 4.16699C1.66797 5.5477 2.78726 6.66699 4.16797 6.66699Z" stroke="#8F96A1" stroke-width="1.5" stroke-linecap="round" stroke-linejoin="round"/>
<path d="M15.832 12.5C17.2127 12.5 18.332 11.3807 18.332 10C18.332 8.61929 17.2127 7.5 15.832 7.5C14.4513 7.5 13.332 8.61929 13.332 10C13.332 11.3807 14.4513 12.5 15.832 12.5Z" stroke="#8F96A1" stroke-width="1.5" stroke-linecap="round" stroke-linejoin="round"/>
<path d="M4.16797 18.333C5.54868 18.333 6.66797 17.2137 6.66797 15.833C6.66797 14.4523 5.54868 13.333 4.16797 13.333C2.78726 13.333 1.66797 14.4523 1.66797 15.833C1.66797 17.2137 2.78726 18.333 4.16797 18.333Z" stroke="#8F96A1" stroke-width="1.5" stroke-linecap="round" stroke-linejoin="round"/>
<path d="M13.3346 10.0003H7.5013C5.66797 10.0003 4.16797 9.16699 4.16797 6.66699V13.3337" stroke="#8F96A1" stroke-width="1.5" stroke-linecap="round" stroke-linejoin="round"/>
</svg>
