<svg width="28" height="28" viewBox="0 0 28 28" fill="none" xmlns="http://www.w3.org/2000/svg">
<path d="M5.83594 9.33398C7.76893 9.33398 9.33594 7.76698 9.33594 5.83398C9.33594 3.90099 7.76893 2.33398 5.83594 2.33398C3.90294 2.33398 2.33594 3.90099 2.33594 5.83398C2.33594 7.76698 3.90294 9.33398 5.83594 9.33398Z" stroke="#8F96A1" stroke-width="1.5" stroke-linecap="round" stroke-linejoin="round"/>
<path d="M22.1641 17.5C24.0971 17.5 25.6641 15.933 25.6641 14C25.6641 12.067 24.0971 10.5 22.1641 10.5C20.2311 10.5 18.6641 12.067 18.6641 14C18.6641 15.933 20.2311 17.5 22.1641 17.5Z" stroke="#8F96A1" stroke-width="1.5" stroke-linecap="round" stroke-linejoin="round"/>
<path d="M5.83594 25.666C7.76893 25.666 9.33594 24.099 9.33594 22.166C9.33594 20.233 7.76893 18.666 5.83594 18.666C3.90294 18.666 2.33594 20.233 2.33594 22.166C2.33594 24.099 3.90294 25.666 5.83594 25.666Z" stroke="#8F96A1" stroke-width="1.5" stroke-linecap="round" stroke-linejoin="round"/>
<path d="M18.6693 14.0007H10.5026C7.93594 14.0007 5.83594 12.834 5.83594 9.33398V18.6673" stroke="#8F96A1" stroke-width="1.5" stroke-linecap="round" stroke-linejoin="round"/>
</svg>
