<svg width="20" height="20" viewBox="0 0 20 20" fill="none" xmlns="http://www.w3.org/2000/svg">
<path d="M9.5526 11.4421C10.8459 11.4421 11.8943 10.3937 11.8943 9.10045C11.8943 7.80719 10.8459 6.75879 9.5526 6.75879C8.25934 6.75879 7.21094 7.80719 7.21094 9.10045C7.21094 10.3937 8.25934 11.4421 9.5526 11.4421Z" stroke="#8F96A1" stroke-width="1.5" stroke-linecap="round" stroke-linejoin="round"/>
<path d="M13.8766 16.8336C13.8766 14.892 11.9432 13.3086 9.55156 13.3086C7.15989 13.3086 5.22656 14.8836 5.22656 16.8336" stroke="#8F96A1" stroke-width="1.5" stroke-linecap="round" stroke-linejoin="round"/>
<path d="M17.5013 10.4167C17.5013 14.7917 13.9596 18.3333 9.58464 18.3333C5.20964 18.3333 1.66797 14.7917 1.66797 10.4167C1.66797 6.04167 5.20964 2.5 9.58464 2.5C10.6763 2.5 11.718 2.71666 12.668 3.11666C12.5596 3.44999 12.5013 3.8 12.5013 4.16667C12.5013 4.79167 12.6763 5.38333 12.9846 5.88333C13.1513 6.16666 13.368 6.42498 13.618 6.64164C14.2013 7.17498 14.9763 7.5 15.8346 7.5C16.2013 7.5 16.5513 7.44165 16.8763 7.32498C17.2763 8.27498 17.5013 9.325 17.5013 10.4167Z" stroke="#8F96A1" stroke-width="1.5" stroke-linecap="round" stroke-linejoin="round"/>
<path d="M19.1667 4.16634C19.1667 4.43301 19.1333 4.69133 19.0667 4.94133C18.9917 5.27467 18.8583 5.59967 18.6833 5.88301C18.2833 6.55801 17.6417 7.08299 16.875 7.32466C16.55 7.44132 16.2 7.49967 15.8333 7.49967C14.975 7.49967 14.2 7.17465 13.6167 6.64132C13.3667 6.42465 13.15 6.16634 12.9833 5.88301C12.675 5.38301 12.5 4.79134 12.5 4.16634C12.5 3.79967 12.5583 3.44967 12.6667 3.11633C12.825 2.633 13.0917 2.19969 13.4417 1.84136C14.05 1.21636 14.9 0.833008 15.8333 0.833008C16.8167 0.833008 17.7083 1.25802 18.3083 1.94136C18.8417 2.53302 19.1667 3.31634 19.1667 4.16634Z" stroke="#8F96A1" stroke-width="1.5" stroke-miterlimit="10" stroke-linecap="round" stroke-linejoin="round"/>
<path d="M17.0732 4.15039H14.5898" stroke="#8F96A1" stroke-width="1.5" stroke-miterlimit="10" stroke-linecap="round" stroke-linejoin="round"/>
<path d="M15.832 2.93359V5.42525" stroke="#8F96A1" stroke-width="1.5" stroke-miterlimit="10" stroke-linecap="round" stroke-linejoin="round"/>
</svg>
