<svg width="28" height="28" viewBox="0 0 28 28" fill="none" xmlns="http://www.w3.org/2000/svg">
<path d="M21.0441 15.8086C20.5541 16.287 20.2741 16.9753 20.3441 17.7103C20.4491 18.9703 21.6041 19.892 22.8641 19.892H25.0807V21.2803C25.0807 23.6953 23.1091 25.667 20.6941 25.667H8.89907C9.26073 25.3637 9.57573 24.9903 9.82073 24.5703C10.2524 23.8703 10.4974 23.042 10.4974 22.167C10.4974 19.5887 8.40906 17.5003 5.83073 17.5003C4.73406 17.5003 3.71906 17.8853 2.91406 18.527V13.4287C2.91406 11.0137 4.88572 9.04199 7.30072 9.04199H20.6941C23.1091 9.04199 25.0807 11.0137 25.0807 13.4287V15.1087H22.7241C22.0707 15.1087 21.4757 15.3653 21.0441 15.8086Z" stroke="#8F96A1" stroke-width="1.5" stroke-linecap="round" stroke-linejoin="round"/>
<path d="M2.91406 14.4785V9.14691C2.91406 7.75858 3.76572 6.52186 5.06073 6.03186L14.3241 2.53186C15.7707 1.98353 17.3224 3.05689 17.3224 4.60856V9.04188" stroke="#8F96A1" stroke-width="1.5" stroke-linecap="round" stroke-linejoin="round"/>
<path d="M26.316 16.2983V18.7018C26.316 19.3434 25.8027 19.8684 25.1493 19.8917H22.8627C21.6027 19.8917 20.4477 18.97 20.3427 17.71C20.2727 16.975 20.5527 16.2867 21.0427 15.8084C21.4743 15.365 22.0693 15.1084 22.7227 15.1084H25.1493C25.8027 15.1317 26.316 15.6567 26.316 16.2983Z" stroke="#8F96A1" stroke-width="1.5" stroke-linecap="round" stroke-linejoin="round"/>
<path d="M8.16406 14H16.3307" stroke="#8F96A1" stroke-width="1.5" stroke-linecap="round" stroke-linejoin="round"/>
<path d="M10.4974 22.1667C10.4974 23.0417 10.2524 23.87 9.82073 24.57C9.57573 24.99 9.26073 25.3633 8.89907 25.6667C8.0824 26.4017 7.00906 26.8333 5.83073 26.8333C4.1274 26.8333 2.64573 25.9233 1.84073 24.57C1.40906 23.87 1.16406 23.0417 1.16406 22.1667C1.16406 20.6967 1.84073 19.3783 2.91406 18.5267C3.71906 17.885 4.73406 17.5 5.83073 17.5C8.40906 17.5 10.4974 19.5883 10.4974 22.1667Z" stroke="#8F96A1" stroke-width="1.5" stroke-miterlimit="10" stroke-linecap="round" stroke-linejoin="round"/>
<path d="M4.01172 22.1667L5.16671 23.3217L7.65171 21.0234" stroke="#8F96A1" stroke-width="1.5" stroke-linecap="round" stroke-linejoin="round"/>
</svg>
