<svg width="28" height="28" viewBox="0 0 28 28" fill="none" xmlns="http://www.w3.org/2000/svg">
<path d="M13.3721 16.0186C15.1827 16.0186 16.6504 14.5508 16.6504 12.7402C16.6504 10.9297 15.1827 9.46191 13.3721 9.46191C11.5615 9.46191 10.0938 10.9297 10.0938 12.7402C10.0938 14.5508 11.5615 16.0186 13.3721 16.0186Z" stroke="#8F96A1" stroke-width="1.5" stroke-linecap="round" stroke-linejoin="round"/>
<path d="M19.4264 23.5669C19.4264 20.8485 16.7197 18.6318 13.3714 18.6318C10.0231 18.6318 7.31641 20.8369 7.31641 23.5669" stroke="#8F96A1" stroke-width="1.5" stroke-linecap="round" stroke-linejoin="round"/>
<path d="M24.5026 14.5833C24.5026 20.7083 19.5443 25.6667 13.4193 25.6667C7.29427 25.6667 2.33594 20.7083 2.33594 14.5833C2.33594 8.45833 7.29427 3.5 13.4193 3.5C14.9476 3.5 16.4059 3.80332 17.7359 4.36332C17.5843 4.82999 17.5026 5.32 17.5026 5.83333C17.5026 6.70833 17.7476 7.53666 18.1793 8.23666C18.4126 8.63333 18.7159 8.99497 19.0659 9.2983C19.8826 10.045 20.9676 10.5 22.1693 10.5C22.6826 10.5 23.1726 10.4183 23.6276 10.255C24.1876 11.585 24.5026 13.055 24.5026 14.5833Z" stroke="#8F96A1" stroke-width="1.5" stroke-linecap="round" stroke-linejoin="round"/>
<path d="M26.8333 5.83268C26.8333 6.20602 26.7867 6.56767 26.6933 6.91767C26.5883 7.38434 26.4017 7.83935 26.1567 8.23601C25.5967 9.18101 24.6983 9.91599 23.625 10.2543C23.17 10.4177 22.68 10.4993 22.1667 10.4993C20.965 10.4993 19.88 10.0443 19.0633 9.29765C18.7133 8.99431 18.41 8.63268 18.1767 8.23601C17.745 7.53601 17.5 6.70768 17.5 5.83268C17.5 5.31935 17.5817 4.82934 17.7333 4.36267C17.955 3.686 18.3283 3.07937 18.8183 2.57771C19.67 1.70271 20.86 1.16602 22.1667 1.16602C23.5433 1.16602 24.7917 1.76104 25.6317 2.7177C26.3783 3.54604 26.8333 4.64268 26.8333 5.83268Z" stroke="#8F96A1" stroke-width="1.5" stroke-miterlimit="10" stroke-linecap="round" stroke-linejoin="round"/>
<path d="M23.9024 5.81055H20.4258" stroke="#8F96A1" stroke-width="1.5" stroke-miterlimit="10" stroke-linecap="round" stroke-linejoin="round"/>
<path d="M22.1641 4.10742V7.59574" stroke="#8F96A1" stroke-width="1.5" stroke-miterlimit="10" stroke-linecap="round" stroke-linejoin="round"/>
</svg>
