<svg width="28" height="28" viewBox="0 0 28 28" fill="none" xmlns="http://www.w3.org/2000/svg">
<path d="M13.9997 2.24023C10.9131 2.24023 8.39969 4.75367 8.39969 7.84023C8.39969 9.68211 9.31406 11.2987 10.6922 12.3202L7.90969 16.9052C7.34094 16.7368 6.70875 16.7805 6.15969 17.0977C5.09437 17.7124 4.7225 19.0949 5.33719 20.1602C5.95187 21.2255 7.33437 21.5974 8.39969 20.9827C9.465 20.368 9.83687 18.9855 9.22219 17.9202C9.12594 17.754 9.00125 17.614 8.87219 17.4827L11.9172 12.4777L12.2147 11.9877L11.7247 11.7077C10.4056 10.929 9.51969 9.48742 9.51969 7.84023C9.51969 5.35961 11.5191 3.36023 13.9997 3.36023C16.4803 3.36023 18.4797 5.35961 18.4797 7.84023C18.4797 8.3018 18.4163 8.73492 18.2872 9.15273L19.3547 9.48523C19.5166 8.96242 19.5997 8.41336 19.5997 7.84023C19.5997 4.75367 17.0863 2.24023 13.9997 2.24023ZM13.9997 5.60023C12.7681 5.60023 11.7597 6.60867 11.7597 7.84023C11.7597 9.0718 12.7681 10.0802 13.9997 10.0802C14.1856 10.0802 14.3694 10.054 14.5422 10.0102L17.2372 14.8927L17.4997 15.3827L18.0072 15.1202C18.6481 14.7659 19.3744 14.5602 20.1597 14.5602C22.6403 14.5602 24.6397 16.5596 24.6397 19.0402C24.6397 21.5209 22.6403 23.5202 20.1597 23.5202C18.95 23.5202 17.8519 23.0368 17.0447 22.2602L16.2747 23.0652C17.2809 24.0343 18.6547 24.6402 20.1597 24.6402C23.2463 24.6402 25.7597 22.1268 25.7597 19.0402C25.7597 15.9537 23.2463 13.4402 20.1597 13.4402C19.3831 13.4402 18.6634 13.6437 17.9897 13.9302L15.5222 9.45023C15.9553 9.04117 16.2397 8.4768 16.2397 7.84023C16.2397 6.60867 15.2312 5.60023 13.9997 5.60023ZM13.9997 6.72023C14.6253 6.72023 15.1197 7.21461 15.1197 7.84023C15.1197 8.46586 14.6253 8.96023 13.9997 8.96023C13.3741 8.96023 12.8797 8.46586 12.8797 7.84023C12.8797 7.21461 13.3741 6.72023 13.9997 6.72023ZM5.91469 13.5977C3.47562 14.2059 1.67969 16.4218 1.67969 19.0402C1.67969 22.1268 4.19312 24.6402 7.27969 24.6402C10.1672 24.6402 12.4794 22.4112 12.7747 19.6002H18.0072C18.2566 20.5627 19.1228 21.2802 20.1597 21.2802C21.3913 21.2802 22.3997 20.2718 22.3997 19.0402C22.3997 17.8087 21.3913 16.8002 20.1597 16.8002C19.1228 16.8002 18.2566 17.5177 18.0072 18.4802H11.7597V19.0402C11.7597 21.5209 9.76031 23.5202 7.27969 23.5202C4.79906 23.5202 2.79969 21.5209 2.79969 19.0402C2.79969 16.9359 4.24781 15.1859 6.19469 14.7002L5.91469 13.5977ZM7.13969 17.9202C7.57281 17.8655 8.00812 18.0734 8.24219 18.4802C8.555 19.0227 8.38219 19.6899 7.83969 20.0027C7.29719 20.3155 6.63 20.1427 6.31719 19.6002C6.00437 19.0577 6.17719 18.3905 6.71969 18.0777C6.85531 17.999 6.99531 17.9377 7.13969 17.9202ZM20.1597 17.9202C20.7853 17.9202 21.2797 18.4146 21.2797 19.0402C21.2797 19.6659 20.7853 20.1602 20.1597 20.1602C19.5341 20.1602 19.0397 19.6659 19.0397 19.0402C19.0397 18.4146 19.5341 17.9202 20.1597 17.9202Z" fill="#8F96A1"/>
</svg>
