<svg width="20" height="20" viewBox="0 0 20 20" fill="none" xmlns="http://www.w3.org/2000/svg">
<path d="M15.032 11.2923C14.682 11.634 14.482 12.1256 14.532 12.6506C14.607 13.5506 15.432 14.209 16.332 14.209H17.9154V15.2006C17.9154 16.9256 16.507 18.334 14.782 18.334H6.35704C6.61537 18.1173 6.84036 17.8506 7.01536 17.5506C7.3237 17.0506 7.4987 16.459 7.4987 15.834C7.4987 13.9923 6.00703 12.5007 4.16536 12.5007C3.38203 12.5007 2.65703 12.7757 2.08203 13.234V9.59233C2.08203 7.86733 3.49036 6.45898 5.21536 6.45898H14.782C16.507 6.45898 17.9154 7.86733 17.9154 9.59233V10.7923H16.232C15.7654 10.7923 15.3404 10.9756 15.032 11.2923Z" stroke="#8F96A1" stroke-width="1.5" stroke-linecap="round" stroke-linejoin="round"/>
<path d="M2.08203 10.3421V6.53379C2.08203 5.54212 2.69036 4.65875 3.61536 4.30875L10.232 1.80875C11.2654 1.41708 12.3737 2.18377 12.3737 3.29211V6.45876" stroke="#8F96A1" stroke-width="1.5" stroke-linecap="round" stroke-linejoin="round"/>
<path d="M18.7977 11.642V13.3587C18.7977 13.817 18.431 14.192 17.9644 14.2086H16.331C15.431 14.2086 14.606 13.5503 14.531 12.6503C14.481 12.1253 14.681 11.6336 15.031 11.292C15.3394 10.9753 15.7644 10.792 16.231 10.792H17.9644C18.431 10.8087 18.7977 11.1836 18.7977 11.642Z" stroke="#8F96A1" stroke-width="1.5" stroke-linecap="round" stroke-linejoin="round"/>
<path d="M5.83203 10H11.6654" stroke="#8F96A1" stroke-width="1.5" stroke-linecap="round" stroke-linejoin="round"/>
<path d="M7.4987 15.8333C7.4987 16.4583 7.3237 17.05 7.01536 17.55C6.84036 17.85 6.61537 18.1167 6.35704 18.3333C5.7737 18.8583 5.00703 19.1667 4.16536 19.1667C2.9487 19.1667 1.89037 18.5167 1.31537 17.55C1.00703 17.05 0.832031 16.4583 0.832031 15.8333C0.832031 14.7833 1.31536 13.8417 2.08203 13.2333C2.65703 12.775 3.38203 12.5 4.16536 12.5C6.00703 12.5 7.4987 13.9917 7.4987 15.8333Z" stroke="#8F96A1" stroke-width="1.5" stroke-miterlimit="10" stroke-linecap="round" stroke-linejoin="round"/>
<path d="M2.86719 15.8333L3.69218 16.6582L5.46718 15.0166" stroke="#8F96A1" stroke-width="1.5" stroke-linecap="round" stroke-linejoin="round"/>
</svg>
