<svg width="28" height="28" viewBox="0 0 28 28" fill="none" xmlns="http://www.w3.org/2000/svg">
<path d="M13.9974 14.0007C17.2191 14.0007 19.8307 11.389 19.8307 8.16732C19.8307 4.94566 17.2191 2.33398 13.9974 2.33398C10.7757 2.33398 8.16406 4.94566 8.16406 8.16732C8.16406 11.389 10.7757 14.0007 13.9974 14.0007Z" stroke="#8F96A1" stroke-width="1.5" stroke-linecap="round" stroke-linejoin="round"/>
<path d="M22.4077 18.3629L18.2776 22.4929C18.1143 22.6562 17.9626 22.9595 17.9276 23.1812L17.706 24.7562C17.6243 25.3278 18.021 25.7245 18.5926 25.6429L20.1676 25.4212C20.3893 25.3862 20.7043 25.2345 20.856 25.0712L24.986 20.9412C25.6976 20.2296 26.036 19.4012 24.986 18.3512C23.9476 17.3129 23.1193 17.6512 22.4077 18.3629Z" stroke="#8F96A1" stroke-width="1.5" stroke-miterlimit="10" stroke-linecap="round" stroke-linejoin="round"/>
<path d="M21.8125 18.958C22.1625 20.218 23.1425 21.198 24.4025 21.548" stroke="#8F96A1" stroke-width="1.5" stroke-miterlimit="10" stroke-linecap="round" stroke-linejoin="round"/>
<path d="M3.97656 25.6667C3.97656 21.1517 8.46826 17.5 13.9983 17.5C15.2116 17.5 16.3782 17.675 17.4632 18.0017" stroke="#8F96A1" stroke-width="1.5" stroke-linecap="round" stroke-linejoin="round"/>
</svg>
