<svg width="28" height="28" viewBox="0 0 28 28" fill="none" xmlns="http://www.w3.org/2000/svg">
<path d="M14 6.4873H25.6667" stroke="#8F96A1" stroke-width="1.5" stroke-miterlimit="10" stroke-linecap="round" stroke-linejoin="round"/>
<path d="M16.59 2.33398H23.0767C25.1533 2.33398 25.6667 2.84732 25.6667 4.90065V9.69565C25.6667 11.749 25.1533 12.2623 23.0767 12.2623H16.59C14.5133 12.2623 14 11.749 14 9.69565V4.90065C14 2.84732 14.5133 2.33398 16.59 2.33398Z" stroke="#8F96A1" stroke-width="1.5" stroke-linecap="round" stroke-linejoin="round"/>
<path d="M2.33594 19.9033H14.0026" stroke="#8F96A1" stroke-width="1.5" stroke-miterlimit="10" stroke-linecap="round" stroke-linejoin="round"/>
<path d="M4.92594 15.75H11.4126C13.4893 15.75 14.0026 16.2633 14.0026 18.3167V23.1117C14.0026 25.165 13.4893 25.6783 11.4126 25.6783H4.92594C2.84927 25.6783 2.33594 25.165 2.33594 23.1117V18.3167C2.33594 16.2633 2.84927 15.75 4.92594 15.75Z" stroke="#8F96A1" stroke-width="1.5" stroke-linecap="round" stroke-linejoin="round"/>
<path d="M25.6667 17.5C25.6667 22.015 22.015 25.6667 17.5 25.6667L18.725 23.625" stroke="#8F96A1" stroke-width="1.5" stroke-linecap="round" stroke-linejoin="round"/>
<path d="M2.33594 10.5007C2.33594 5.98565 5.9876 2.33398 10.5026 2.33398L9.27762 4.37565" stroke="#8F96A1" stroke-width="1.5" stroke-linecap="round" stroke-linejoin="round"/>
</svg>
