<svg width="22" height="22" viewBox="0 0 22 22" fill="none" xmlns="http://www.w3.org/2000/svg">
<path d="M16.5 7.906H17C17 7.62986 16.7761 7.406 16.5 7.406V7.906ZM17.3534 7.7537L17 7.4V7.4L17.3534 7.7537ZM17.3537 7.04659L17 7.4L17.3537 7.04659ZM12.5504 12.5527L12.197 12.199L12.5504 12.5527ZM12.1964 12.699L12.197 12.199H12.197L12.1964 12.699ZM11.8428 12.5519L12.197 12.199L11.8428 12.5519ZM9.79774 10.4992L10.152 10.1463C10.0582 10.0522 9.93079 9.99922 9.79792 9.99918C9.66505 9.99913 9.53763 10.052 9.44378 10.146L9.79774 10.4992ZM5.35396 14.9531L5.70792 15.3063L5.35396 14.9531ZM4.64685 14.954L4.2937 15.3079H4.2937L4.64685 14.954ZM4.64604 14.2469L4.29208 13.8937L4.64604 14.2469ZM9.44404 9.43785L9.09008 9.0847L9.44404 9.43785ZM9.79818 9.291L9.79836 8.791L9.79818 9.291ZM10.1522 9.43811L10.5064 9.08522L10.5064 9.08522L10.1522 9.43811ZM12.1978 11.4914L11.8436 11.8443C11.9373 11.9383 12.0645 11.9912 12.1972 11.9914C12.33 11.9915 12.4573 11.9389 12.5512 11.8451L12.1978 11.4914ZM16.6466 7.0463L17 7.4V7.4L16.6466 7.0463ZM4 0C1.79072 0 0 1.79072 0 4H1C1 2.343 2.343 1 4 1V0ZM18 0H4V1H18V0ZM22 4C22 1.79072 20.2093 0 18 0V1C19.657 1 21 2.343 21 4H22ZM22 18V4H21V18H22ZM18 22C20.2093 22 22 20.2093 22 18H21C21 19.657 19.657 21 18 21V22ZM4 22H18V21H4V22ZM0 18C0 20.2093 1.79072 22 4 22V21C2.343 21 1 19.657 1 18H0ZM0 4V18H1V4H0ZM2 4C2 2.89528 2.89528 2 4 2V1C2.343 1 1 2.343 1 4H2ZM2 18V4H1V18H2ZM4 20C2.89528 20 2 19.1047 2 18H1C1 19.657 2.343 21 4 21V20ZM18 20H4V21H18V20ZM20 18C20 19.1047 19.1047 20 18 20V21C19.657 21 21 19.657 21 18H20ZM20 4V18H21V4H20ZM18 2C19.1047 2 20 2.89528 20 4H21C21 2.343 19.657 1 18 1V2ZM4 2H18V1H4V2ZM13 6.406C12.4477 6.406 12 6.85372 12 7.406H13V6.406ZM17 6.406H13V7.406H17V6.406ZM18 7.406C18 6.85372 17.5523 6.406 17 6.406V7.406H18ZM18 11.406V7.406H17V11.406H18ZM17 12.406C17.5523 12.406 18 11.9583 18 11.406H17V12.406ZM16 11.406C16 11.9583 16.4477 12.406 17 12.406V11.406H16ZM16 7.906V11.406H17V7.906H16ZM13 8.406H16.5V7.406H13V8.406ZM12 7.406C12 7.95828 12.4477 8.406 13 8.406V7.406H12ZM17.7068 8.1074C18.0975 7.71704 18.0978 7.08387 17.7074 6.69319L17 7.4V7.4L17.7068 8.1074ZM12.9038 12.9064L17.7068 8.1074L17 7.4L12.197 12.199L12.9038 12.9064ZM12.1959 13.199C12.4613 13.1993 12.716 13.094 12.9038 12.9064L12.197 12.199H12.197L12.1959 13.199ZM11.4886 12.9048C11.6759 13.0928 11.9304 13.1987 12.1959 13.199L12.197 12.199L12.197 12.199L11.4886 12.9048ZM9.44353 10.8521L11.4886 12.9048L12.197 12.199L10.152 10.1463L9.44353 10.8521ZM5.70792 15.3063L10.1517 10.8523L9.44378 10.146L5 14.6L5.70792 15.3063ZM4.2937 15.3079C4.68467 15.698 5.31784 15.6973 5.70792 15.3063L5 14.6L4.2937 15.3079ZM4.29208 13.8937C3.90201 14.2847 3.90273 14.9178 4.2937 15.3079L5 14.6L5 14.6L4.29208 13.8937ZM9.09008 9.0847L4.29208 13.8937L5 14.6L9.798 9.791L9.09008 9.0847ZM9.79836 8.791C9.53262 8.7909 9.27777 8.89658 9.09008 9.0847L9.798 9.791L9.79836 8.791ZM10.5064 9.08522C10.3189 8.89696 10.0641 8.7911 9.79836 8.791L9.798 9.791H9.798L10.5064 9.08522ZM12.552 11.1385L10.5064 9.08522L9.798 9.791L11.8436 11.8443L12.552 11.1385ZM16.2932 6.6926L11.8444 11.1377L12.5512 11.8451L17 7.4L16.2932 6.6926ZM17.7074 6.69319C17.317 6.3025 16.6839 6.30224 16.2932 6.6926L17 7.4V7.4L17.7074 6.69319Z" fill="black"/>
</svg>
