<svg width="44" height="44" viewBox="0 0 44 44" fill="none" xmlns="http://www.w3.org/2000/svg">
<path d="M34.6 29.5014C34.8761 29.5014 35.1 29.2775 35.1 29.0014C35.1 28.7253 34.8761 28.5014 34.6 28.5014V29.5014ZM22.6993 1L22.6996 0.5H22.6993V1ZM29.0014 7.3H29.5014V7.2997L29.0014 7.3ZM28.5014 9.4C28.5014 9.67614 28.7253 9.9 29.0014 9.9C29.2775 9.9 29.5014 9.67614 29.5014 9.4H28.5014ZM29.0145 22.709C28.8192 22.5138 28.5026 22.5138 28.3074 22.709C28.1121 22.9043 28.1121 23.2209 28.3074 23.4161L29.0145 22.709ZM34.5997 29.0014L34.9534 29.3549C35.1486 29.1596 35.1485 28.8431 34.9533 28.6478L34.5997 29.0014ZM28.3073 34.5888C28.1121 34.7841 28.1122 35.1007 28.3074 35.2959C28.5027 35.4911 28.8193 35.4911 29.0146 35.2958L28.3073 34.5888ZM14.9873 21.293C15.1826 21.4883 15.4992 21.4883 15.6945 21.293C15.8897 21.0978 15.8897 20.7812 15.6945 20.5859L14.9873 21.293ZM9.4 14.9986L9.04651 14.645C8.95271 14.7387 8.90001 14.8659 8.9 14.9986C8.89999 15.1312 8.95267 15.2584 9.04645 15.3521L9.4 14.9986ZM15.6944 9.41341C15.8897 9.21818 15.8897 8.9016 15.6945 8.7063C15.4993 8.51101 15.1827 8.51095 14.9874 8.70618L15.6944 9.41341ZM9.40004 14.4986C9.1239 14.4986 8.90002 14.7224 8.9 14.9986C8.89998 15.2747 9.12382 15.4986 9.39996 15.4986L9.40004 14.4986ZM36.7 15.0007L36.7 15.5007H36.7V15.0007ZM15.0007 36.7H15.5007L15.5007 36.6995L15.0007 36.7ZM15.4986 34.5995C15.4983 34.3234 15.2742 34.0997 14.9981 34.1C14.722 34.1003 14.4983 34.3244 14.4986 34.6005L15.4986 34.5995ZM34.6 28.5014H7.3V29.5014H34.6V28.5014ZM7.3 28.5014C4.09655 28.5014 1.5 25.903 1.5 22.7014H0.5C0.5 26.455 3.54405 29.5014 7.3 29.5014V28.5014ZM1.5 22.7014V7.3H0.5V22.7014H1.5ZM1.5 7.3C1.5 4.09644 4.09644 1.5 7.3 1.5V0.5C3.54416 0.5 0.5 3.54416 0.5 7.3H1.5ZM7.3 1.5H22.6993V0.5H7.3V1.5ZM22.699 1.5C25.9029 1.50193 28.4995 4.09872 28.5014 7.3003L29.5014 7.2997C29.4991 3.54608 26.4551 0.502267 22.6996 0.5L22.699 1.5ZM28.5014 7.3V9.4H29.5014V7.3H28.5014ZM28.3074 23.4161L34.2462 29.3549L34.9533 28.6478L29.0145 22.709L28.3074 23.4161ZM34.2461 28.6479L28.3073 34.5888L29.0146 35.2958L34.9534 29.3549L34.2461 28.6479ZM15.6945 20.5859L9.75355 14.645L9.04645 15.3521L14.9873 21.293L15.6945 20.5859ZM9.75349 15.3522L15.6944 9.41341L14.9874 8.70618L9.04651 14.645L9.75349 15.3522ZM9.39996 15.4986L36.7 15.5007L36.7 14.5007L9.40004 14.4986L9.39996 15.4986ZM36.7 15.5007C39.9036 15.5007 42.5 18.0971 42.5 21.3007H43.5C43.5 17.5449 40.4558 14.5007 36.7 14.5007V15.5007ZM42.5 21.3007V36.7H43.5V21.3007H42.5ZM42.5 36.7C42.5 39.9036 39.9036 42.5 36.7 42.5V43.5C40.4558 43.5 43.5 40.4558 43.5 36.7H42.5ZM36.7 42.5H21.3007V43.5H36.7V42.5ZM21.3007 42.5C18.0971 42.5 15.5007 39.9036 15.5007 36.7H14.5007C14.5007 40.4558 17.5449 43.5 21.3007 43.5V42.5ZM15.5007 36.6995L15.4986 34.5995L14.4986 34.6005L14.5007 36.7005L15.5007 36.6995Z" fill="#E3AA1C"/>
</svg>
