<svg width="43" height="42" viewBox="0 0 43 42" fill="none" xmlns="http://www.w3.org/2000/svg">
<path d="M1.5 17H1C1 17.2761 1.22386 17.5 1.5 17.5V17ZM41.5 17V17.5C41.7761 17.5 42 17.2761 42 17H41.5ZM41.5 11.6667H42C42 11.482 41.8982 11.3124 41.7353 11.2255L41.5 11.6667ZM21.5 1L21.7353 0.558824C21.5882 0.480392 21.4118 0.480392 21.2647 0.558824L21.5 1ZM1.5 11.6667L1.26471 11.2255C1.10177 11.3124 1 11.482 1 11.6667H1.5ZM8.50684 17C8.50684 16.7239 8.28298 16.5 8.00684 16.5C7.73069 16.5 7.50684 16.7239 7.50684 17H8.50684ZM7.50684 33C7.50684 33.2761 7.73069 33.5 8.00684 33.5C8.28298 33.5 8.50684 33.2761 8.50684 33H7.50684ZM17.5068 17C17.5068 16.7239 17.283 16.5 17.0068 16.5C16.7307 16.5 16.5068 16.7239 16.5068 17H17.5068ZM16.5068 33C16.5068 33.2761 16.7307 33.5 17.0068 33.5C17.283 33.5 17.5068 33.2761 17.5068 33H16.5068ZM26.5068 17C26.5068 16.7239 26.283 16.5 26.0068 16.5C25.7307 16.5 25.5068 16.7239 25.5068 17H26.5068ZM25.5068 33C25.5068 33.2761 25.7307 33.5 26.0068 33.5C26.283 33.5 26.5068 33.2761 26.5068 33H25.5068ZM35.5068 17C35.5068 16.7239 35.283 16.5 35.0068 16.5C34.7307 16.5 34.5068 16.7239 34.5068 17H35.5068ZM34.5068 33C34.5068 33.2761 34.7307 33.5 35.0068 33.5C35.283 33.5 35.5068 33.2761 35.5068 33H34.5068ZM1.14645 41.3536L1.5 41H1.5L1.14645 41.3536ZM2 40.5H1.5C1.5 40.7761 1.72386 41 2 41V40.5ZM2 33.5V33C1.72386 33 1.5 33.2239 1.5 33.5H2ZM41 40.5V41C41.2761 41 41.5 40.7761 41.5 40.5H41ZM41 33.5H41.5C41.5 33.2239 41.2761 33 41 33V33.5ZM1.5 17.5H41.5V16.5H1.5V17.5ZM42 17V11.6667H41V17H42ZM41.7353 11.2255L21.7353 0.558824L21.2647 1.44118L41.2647 12.1078L41.7353 11.2255ZM21.2647 0.558824L1.26471 11.2255L1.73529 12.1078L21.7353 1.44118L21.2647 0.558824ZM1 11.6667L1 17H2V11.6667H1ZM7.50684 17V33H8.50684V17H7.50684ZM16.5068 17V33H17.5068V17H16.5068ZM25.5068 17V33H26.5068V17H25.5068ZM34.5068 17V33H35.5068V17H34.5068ZM1.5 32C0.947715 32 0.5 32.4477 0.5 33H1.5V32ZM41.5 32H1.5V33H41.5V32ZM42.5 33C42.5 32.4477 42.0523 32 41.5 32V33H42.5ZM42.5 41V33H41.5V41H42.5ZM41.5 42C42.0523 42 42.5 41.5523 42.5 41H41.5V42ZM1.5 42H41.5V41H1.5V42ZM0.792893 41.7071C0.98043 41.8946 1.23478 42 1.5 42V41H1.5L0.792893 41.7071ZM0.5 41C0.5 41.2652 0.605357 41.5196 0.792893 41.7071L1.5 41H1.5H0.5ZM0.5 33V41H1.5V33H0.5ZM2.5 40.5V33.5H1.5V40.5H2.5ZM41 40H2V41H41V40ZM40.5 33.5V40.5H41.5V33.5H40.5ZM2 34H41V33H2V34Z" fill="#E3AA1C"/>
</svg>
