<svg width="22" height="20" viewBox="0 0 22 20" fill="none" xmlns="http://www.w3.org/2000/svg">
<path d="M1 13H0.5C0.5 13.2761 0.723858 13.5 1 13.5V13ZM21 13V13.5C21.2761 13.5 21.5 13.2761 21.5 13H21ZM21 1H21.5C21.5 0.723858 21.2761 0.5 21 0.5V1ZM1 1V0.5C0.723858 0.5 0.5 0.723858 0.5 1H1ZM20 16.5C20.2761 16.5 20.5 16.2761 20.5 16C20.5 15.7239 20.2761 15.5 20 15.5V16.5ZM2 15.5C1.72386 15.5 1.5 15.7239 1.5 16C1.5 16.2761 1.72386 16.5 2 16.5V15.5ZM19 19.5C19.2761 19.5 19.5 19.2761 19.5 19C19.5 18.7239 19.2761 18.5 19 18.5V19.5ZM3 18.5C2.72386 18.5 2.5 18.7239 2.5 19C2.5 19.2761 2.72386 19.5 3 19.5V18.5ZM1 13.5H21V12.5H1V13.5ZM21.5 13V1H20.5V13H21.5ZM21 0.5H1V1.5H21V0.5ZM0.5 1V13H1.5V1H0.5ZM11 4.5C9.62002 4.5 8.5 5.61869 8.5 7H9.5C9.5 6.17131 10.172 5.5 11 5.5V4.5ZM8.5 7C8.5 8.38014 9.61986 9.5 11 9.5V8.5C10.1721 8.5 9.5 7.82786 9.5 7H8.5ZM11 9.5C12.3813 9.5 13.5 8.37998 13.5 7H12.5C12.5 7.82802 11.8287 8.5 11 8.5V9.5ZM13.5 7C13.5 5.61886 12.3811 4.5 11 4.5V5.5C11.8289 5.5 12.5 6.17114 12.5 7H13.5ZM20 15.5H2V16.5H20V15.5ZM2 16.5H20V15.5H2V16.5ZM19 18.5H3V19.5H19V18.5ZM3 19.5H19V18.5H3V19.5ZM16 3C15.4477 3 15 3.44772 15 4H16V3ZM18 3H16V4H18V3ZM19 4C19 3.44772 18.5523 3 18 3V4H19ZM18 5C18.5523 5 19 4.55228 19 4H18V5ZM16 5H18V4H16V5ZM15 4C15 4.55228 15.4477 5 16 5V4H15ZM4 9C3.44772 9 3 9.44771 3 10H4V9ZM6 9H4V10H6V9ZM7 10C7 9.44771 6.55228 9 6 9V10H7ZM6 11C6.55228 11 7 10.5523 7 10H6V11ZM4 11H6V10H4V11ZM3 10C3 10.5523 3.44772 11 4 11V10H3Z" fill="#311B92"/>
</svg>
