<svg width="70" height="57" viewBox="0 0 70 57" fill="none" xmlns="http://www.w3.org/2000/svg">
<path fill-rule="evenodd" clip-rule="evenodd" d="M65.0781 8.875C66.4453 8.875 67.6074 9.35351 68.5645 10.3105C69.5215 11.2676 70 12.4297 70 13.7969V23.9141C70 24.5977 69.7607 25.1787 69.2822 25.6572C68.8037 26.1357 68.2227 26.375 67.5391 26.375C66.8555 26.375 66.2744 26.1357 65.7959 25.6572C65.3174 25.1787 65.0781 24.5977 65.0781 23.9141V13.7969H4.92188V52.0781H36.9141C37.5977 52.0781 38.1787 52.3174 38.6572 52.7959C39.1357 53.2744 39.375 53.8555 39.375 54.5391C39.375 55.2227 39.1357 55.8037 38.6572 56.2822C38.1787 56.7607 37.5977 57 36.9141 57H4.92188C3.55468 57 2.39258 56.5215 1.43555 55.5645C0.478511 54.6074 0 53.4453 0 52.0781V5.04688C0 3.67968 0.478511 2.51758 1.43555 1.56055C2.39258 0.603511 3.55468 0.125 4.92188 0.125H27.002C28.0957 0.125 29.0755 0.444007 29.9414 1.08203C30.8073 1.72006 31.3997 2.54036 31.7188 3.54297L33.4277 8.875H65.0781ZM67.5391 39.5C68.2227 39.5 68.8037 39.7393 69.2822 40.2178C69.7607 40.6963 70 41.2773 70 41.9609C70 42.6445 69.7607 43.2256 69.2822 43.7041C68.8037 44.1826 68.2227 44.4219 67.5391 44.4219H56.875V54.5391C56.875 55.2227 56.6357 55.8037 56.1572 56.2822C55.6787 56.7607 55.0977 57 54.4141 57C53.7305 57 53.1494 56.7607 52.6709 56.2822C52.1924 55.8037 51.9531 55.2227 51.9531 54.5391V44.4219H41.8359C41.1523 44.4219 40.5713 44.1826 40.0928 43.7041C39.6143 43.2256 39.375 42.6445 39.375 41.9609C39.375 41.2773 39.6143 40.6963 40.0928 40.2178C40.5713 39.7393 41.1523 39.5 41.8359 39.5H51.9531V28.8359C51.9531 28.1523 52.1924 27.5713 52.6709 27.0928C53.1494 26.6143 53.7305 26.375 54.4141 26.375C55.0977 26.375 55.6787 26.6143 56.1572 27.0928C56.6357 27.5713 56.875 28.1523 56.875 28.8359V39.5H67.5391ZM28.2324 8.875H4.92188V5.04688H27.002L28.2324 8.875Z" fill="#311B92" fill-opacity="0.2"/>
</svg>
