<svg width="40" height="40" viewBox="0 0 40 40" fill="none" xmlns="http://www.w3.org/2000/svg">
<circle cx="20" cy="20" r="20" fill="#F6D9CC"/>
<path d="M16 20.2002H23" stroke="#19283D" stroke-opacity="0.8" stroke-width="1.5" stroke-miterlimit="10" stroke-linecap="round" stroke-linejoin="round"/>
<path d="M16 24.2002H20.38" stroke="#19283D" stroke-opacity="0.8" stroke-width="1.5" stroke-miterlimit="10" stroke-linecap="round" stroke-linejoin="round"/>
<path d="M18 14H22C24 14 24 13 24 12C24 10 23 10 22 10H18C17 10 16 10 16 12C16 14 17 14 18 14Z" stroke="#19283D" stroke-opacity="0.8" stroke-width="1.5" stroke-miterlimit="10" stroke-linecap="round" stroke-linejoin="round"/>
<path d="M24 12.0195C27.33 12.1995 29 13.4295 29 17.9995V23.9995C29 27.9995 28 29.9995 23 29.9995H17C12 29.9995 11 27.9995 11 23.9995V17.9995C11 13.4395 12.67 12.1995 16 12.0195" stroke="#19283D" stroke-opacity="0.8" stroke-width="1.5" stroke-miterlimit="10" stroke-linecap="round" stroke-linejoin="round"/>
</svg>
