<svg width="18" height="18" viewBox="0 0 17 18" fill="none" xmlns="http://www.w3.org/2000/svg">
<path fill-rule="evenodd" clip-rule="evenodd" d="M8.57144 17.429C13.3036 17.429 17.1429 13.5897 17.1429 8.85757C17.1429 4.12542 13.3036 0.286133 8.57144 0.286133C3.83929 0.286133 0 4.12542 0 8.85757C0 13.5897 3.83929 17.429 8.57144 17.429ZM10 4.21471V2.42899C10 2.2281 9.84376 2.07185 9.64287 2.07185H7.50001C7.29912 2.07185 7.14287 2.2281 7.14287 2.42899V4.21471C7.14287 4.4156 7.29912 4.57185 7.50001 4.57185L9.64287 4.57185C9.84376 4.57185 10 4.4156 10 4.21471ZM11.4286 14.2147V12.429C11.4286 12.2281 11.2723 12.0719 11.0714 12.0719H10V6.35757C10 6.15668 9.84376 6.00043 9.64287 6.00043H6.07144C5.87054 6.00043 5.71429 6.15668 5.71429 6.35757V8.14328C5.71429 8.34418 5.87054 8.50043 6.07144 8.50043H7.14287V12.0719H6.07144C5.87054 12.0719 5.71429 12.2281 5.71429 12.429V14.2147C5.71429 14.4156 5.87054 14.5719 6.07144 14.5719H11.0714C11.2723 14.5719 11.4286 14.4156 11.4286 14.2147Z" fill="#19283d"/>
</svg>
