<svg width="6" height="6" viewBox="0 0 18 18" fill="none" xmlns="http://www.w3.org/2000/svg">
<path fill-rule="evenodd" clip-rule="evenodd" d="M8.57144 17.4285C13.3036 17.4285 17.1429 13.5892 17.1429 8.85708C17.1429 4.12493 13.3036 0.285645 8.57144 0.285645C3.83929 0.285645 0 4.12493 0 8.85708C0 13.5892 3.83929 17.4285 8.57144 17.4285ZM10 4.21422V2.4285C10 2.22761 9.84376 2.07136 9.64287 2.07136H7.50001C7.29912 2.07136 7.14287 2.22761 7.14287 2.4285V4.21422C7.14287 4.41511 7.29912 4.57136 7.50001 4.57136L9.64287 4.57136C9.84376 4.57136 10 4.41511 10 4.21422ZM11.4286 14.2142V12.4285C11.4286 12.2276 11.2723 12.0714 11.0714 12.0714H10V6.35708C10 6.15619 9.84376 5.99994 9.64287 5.99994H6.07144C5.87054 5.99994 5.71429 6.15619 5.71429 6.35708V8.1428C5.71429 8.34369 5.87054 8.49994 6.07144 8.49994H7.14287V12.0714H6.07144C5.87054 12.0714 5.71429 12.2276 5.71429 12.4285V14.2142C5.71429 14.4151 5.87054 14.5714 6.07144 14.5714H11.0714C11.2723 14.5714 11.4286 14.4151 11.4286 14.2142Z" fill="#311B92"/>
</svg>
