<svg width="20" height="20" viewBox="0 0 20 20" fill="none" xmlns="http://www.w3.org/2000/svg">
<path d="M14.9 7.2654H15.4C15.4 6.98926 15.1761 6.7654 14.9 6.7654V7.2654ZM15.7534 7.1137L15.4 6.76L15.4 6.76L15.7534 7.1137ZM15.7537 6.40659L15.4 6.76L15.7537 6.40659ZM11.4307 11.4328L11.7841 11.7865L11.4307 11.4328ZM11.0767 11.5791L11.0773 11.0791H11.0773L11.0767 11.5791ZM10.7231 11.432L10.3689 11.7849L10.7231 11.432ZM8.91794 9.62008L9.27216 9.26719C9.17838 9.17306 9.05099 9.12012 8.91812 9.12008C8.78525 9.12003 8.65783 9.17287 8.56398 9.26693L8.91794 9.62008ZM4.95396 13.5931L5.30792 13.9463L4.95396 13.5931ZM4.24685 13.594L3.8937 13.9479H3.8937L4.24685 13.594ZM4.24604 12.8869L3.89208 12.5337L4.24604 12.8869ZM8.56424 8.55875L8.9182 8.9119L8.9182 8.9119L8.56424 8.55875ZM8.91838 8.4119L8.91856 7.9119H8.91856L8.91838 8.4119ZM9.27242 8.55901L8.9182 8.9119H8.9182L9.27242 8.55901ZM11.0781 10.3715L10.7239 10.7244C10.8176 10.8184 10.9448 10.8713 11.0775 10.8715C11.2103 10.8716 11.3376 10.819 11.4315 10.7252L11.0781 10.3715ZM15.0466 6.4063L15.4 6.76V6.76L15.0466 6.4063ZM3.7 0C1.65642 0 0 1.65642 0 3.7H1C1 2.2087 2.2087 1 3.7 1V0ZM16.3 0H3.7V1H16.3V0ZM20 3.7C20 1.65642 18.3436 0 16.3 0V1C17.7913 1 19 2.2087 19 3.7H20ZM20 16.3V3.7H19V16.3H20ZM16.3 20C18.3436 20 20 18.3436 20 16.3H19C19 17.7913 17.7913 19 16.3 19V20ZM3.7 20H16.3V19H3.7V20ZM0 16.3C0 18.3436 1.65642 20 3.7 20V19C2.2087 19 1 17.7913 1 16.3H0ZM0 3.7V16.3H1V3.7H0ZM2 3.7C2 2.76098 2.76098 2 3.7 2V1C2.2087 1 1 2.2087 1 3.7H2ZM2 16.3V3.7H1V16.3H2ZM3.7 18C2.76098 18 2 17.239 2 16.3H1C1 17.7913 2.2087 19 3.7 19V18ZM16.3 18H3.7V19H16.3V18ZM18 16.3C18 17.239 17.239 18 16.3 18V19C17.7913 19 19 17.7913 19 16.3H18ZM18 3.7V16.3H19V3.7H18ZM16.3 2C17.239 2 18 2.76098 18 3.7H19C19 2.2087 17.7913 1 16.3 1V2ZM3.7 2H16.3V1H3.7V2ZM11.8 5.7654C11.2477 5.7654 10.8 6.21312 10.8 6.7654H11.8V5.7654ZM15.4 5.7654H11.8V6.7654H15.4V5.7654ZM16.4 6.7654C16.4 6.21312 15.9523 5.7654 15.4 5.7654V6.7654H16.4ZM16.4 10.3654V6.7654H15.4V10.3654H16.4ZM15.4 11.3654C15.9523 11.3654 16.4 10.9177 16.4 10.3654H15.4V11.3654ZM14.4 10.3654C14.4 10.9177 14.8477 11.3654 15.4 11.3654V10.3654H14.4ZM14.4 7.2654V10.3654H15.4V7.2654H14.4ZM11.8 7.7654H14.9V6.7654H11.8V7.7654ZM10.8 6.7654C10.8 7.31768 11.2477 7.7654 11.8 7.7654V6.7654H10.8ZM16.1068 7.4674C16.4975 7.07704 16.4978 6.44387 16.1074 6.05319L15.4 6.76V6.76L16.1068 7.4674ZM11.7841 11.7865L16.1068 7.4674L15.4 6.76L11.0773 11.0791L11.7841 11.7865ZM11.0762 12.0791C11.3416 12.0794 11.5963 11.9741 11.7841 11.7865L11.0773 11.0791H11.0773L11.0762 12.0791ZM10.3689 11.7849C10.5562 11.9729 10.8107 12.0788 11.0762 12.0791L11.0773 11.0791L11.0773 11.0791L10.3689 11.7849ZM8.56373 9.97297L10.3689 11.7849L11.0773 11.0791L9.27216 9.26719L8.56373 9.97297ZM5.30792 13.9463L9.2719 9.97322L8.56398 9.26693L4.6 13.24L5.30792 13.9463ZM3.8937 13.9479C4.28467 14.338 4.91784 14.3373 5.30792 13.9463L4.6 13.24L3.8937 13.9479ZM3.89208 12.5337C3.50201 12.9247 3.50273 13.5578 3.8937 13.9479L4.6 13.24L4.6 13.24L3.89208 12.5337ZM8.21028 8.2056L3.89208 12.5337L4.6 13.24L8.9182 8.9119L8.21028 8.2056ZM8.91856 7.9119C8.65282 7.9118 8.39797 8.01748 8.21028 8.2056L8.9182 8.9119L8.9182 8.9119L8.91856 7.9119ZM9.62663 8.20612C9.43908 8.01786 9.1843 7.912 8.91856 7.9119L8.9182 8.9119L9.62663 8.20612ZM11.4323 10.0186L9.62663 8.20612L8.9182 8.9119L10.7239 10.7244L11.4323 10.0186ZM14.6932 6.0526L10.7247 10.0178L11.4315 10.7252L15.4 6.76L14.6932 6.0526ZM16.1074 6.05319C15.717 5.6625 15.0839 5.66224 14.6932 6.0526L15.4 6.76V6.76L16.1074 6.05319Z" fill="#7F919B"/>
</svg>
