<svg width="40" height="40" viewBox="0 0 40 40" fill="none" xmlns="http://www.w3.org/2000/svg">
<circle cx="20" cy="20" r="20" fill="#B8ECE5"/>
<path d="M14.73 28.7C15.55 27.82 16.8 27.89 17.52 28.85L18.53 30.2C19.34 31.27 20.65 31.27 21.46 30.2L22.47 28.85C23.19 27.89 24.44 27.82 25.26 28.7C27.04 30.6 28.49 29.97 28.49 27.31V16.04C28.5 12.01 27.56 11 23.78 11H16.22C12.44 11 11.5 12.01 11.5 16.04V27.3C11.5 29.97 12.96 30.59 14.73 28.7Z" stroke="#19283D" stroke-opacity="0.8" stroke-width="1.5" stroke-linecap="round" stroke-linejoin="round"/>
<path d="M16.0961 20H16.1051" stroke="#19283D" stroke-opacity="0.8" stroke-width="2" stroke-linecap="round" stroke-linejoin="round"/>
<path d="M18.8984 20H24.3984" stroke="#19283D" stroke-opacity="0.8" stroke-width="1.5" stroke-linecap="round" stroke-linejoin="round"/>
<path d="M16.0961 16H16.1051" stroke="#19283D" stroke-opacity="0.8" stroke-width="2" stroke-linecap="round" stroke-linejoin="round"/>
<path d="M18.8984 16H24.3984" stroke="#19283D" stroke-opacity="0.8" stroke-width="1.5" stroke-linecap="round" stroke-linejoin="round"/>
</svg>
