<svg width="12" height="12" viewBox="0 0 12 12" fill="none" xmlns="http://www.w3.org/2000/svg">
<path d="M8.75 7.3125L8.625 7.53125L12 10.9375L10.9375 12L7.5625 8.59375L7.34375 8.75C6.51042 9.27083 5.64583 9.53125 4.75 9.53125C3.4375 9.53125 2.3125 9.0625 1.375 8.125C0.458333 7.1875 0 6.0625 0 4.75C0 3.4375 0.458333 2.32292 1.375 1.40625C2.3125 0.46875 3.4375 0 4.75 0C6.0625 0 7.17708 0.46875 8.09375 1.40625C9.03125 2.32292 9.5 3.4375 9.5 4.75C9.5 5.66667 9.25 6.52083 8.75 7.3125ZM7.40625 2.09375C6.67708 1.36458 5.79167 1 4.75 1C3.70833 1 2.82292 1.36458 2.09375 2.09375C1.36458 2.82292 1 3.70833 1 4.75C1 5.79167 1.36458 6.67708 2.09375 7.40625C2.82292 8.13542 3.70833 8.5 4.75 8.5C5.79167 8.5 6.67708 8.13542 7.40625 7.40625C8.15625 6.65625 8.53125 5.77083 8.53125 4.75C8.53125 3.72917 8.15625 2.84375 7.40625 2.09375Z" fill="#002338" fill-opacity="0.5"/>
</svg>
