<svg width="20" height="20" viewBox="0 0 20 20" fill="none" xmlns="http://www.w3.org/2000/svg">
<path d="M8.69749 5.8855L8.26875 6.14275H8.26875L8.69749 5.8855ZM7.57307 5.43629L7.70653 5.91814L7.57307 5.43629ZM9.9197 7.92252L9.49096 8.17977C9.58132 8.33037 9.74407 8.42252 9.9197 8.42252V7.92252ZM11.16 7.92252V8.42252C11.4361 8.42252 11.66 8.19866 11.66 7.92252H11.16ZM13.16 7.92252H12.66C12.66 8.19866 12.8839 8.42252 13.16 8.42252V7.92252ZM13.16 9.92252V9.42252C12.8839 9.42252 12.66 9.64638 12.66 9.92252H13.16ZM13.16 10.08H12.66C12.66 10.3561 12.8839 10.58 13.16 10.58V10.08ZM13.16 12.08V11.58C12.8839 11.58 12.66 11.8039 12.66 12.08H13.16ZM12.4269 14.5637L12.2935 14.0819L12.4269 14.5637ZM11.3025 14.1145L11.7313 13.8572L11.3025 14.1145ZM10.0818 12.08L10.5106 11.8228C10.4202 11.6721 10.2574 11.58 10.0818 11.58V12.08ZM8.84 12.08V11.58C8.56386 11.58 8.34 11.8039 8.34 12.08H8.84ZM6.84 12.08H7.34C7.34 11.8039 7.11614 11.58 6.84 11.58V12.08ZM6.84 10.08V10.58C7.11614 10.58 7.34 10.3561 7.34 10.08H6.84ZM6.84 9.92252H7.34C7.34 9.64638 7.11614 9.42252 6.84 9.42252V9.92252ZM6.84 7.92252V8.42252C7.11614 8.42252 7.34 8.19866 7.34 7.92252H6.84ZM7.92755 7.92252V8.42252C8.09244 8.42252 8.24673 8.34122 8.33996 8.20522L7.92755 7.92252ZM7.84 7.92252H7.34C7.34 8.19866 7.56386 8.42252 7.84 8.42252V7.92252ZM7.84 6.4L8.26875 6.14275C8.15312 5.95004 7.92312 5.85815 7.70653 5.91814C7.48995 5.97813 7.34 6.17526 7.34 6.4H7.84ZM8.75351 7.92252V8.42252C8.93365 8.42252 9.09986 8.32562 9.18861 8.16887C9.27736 8.01212 9.27494 7.81974 9.18226 7.66527L8.75351 7.92252ZM8.75246 7.92252L8.33989 8.20499C8.4331 8.34113 8.58747 8.42252 8.75246 8.42252V7.92252ZM8.20653 7.7233L8.34 8.20516L8.20653 7.7233ZM8.84 10.08H8.34C8.34 10.3561 8.56386 10.58 8.84 10.58V10.08ZM8.84 10.0103L9.26875 9.75307C9.15312 9.56036 8.92312 9.46847 8.70653 9.52846C8.48995 9.58845 8.34 9.78558 8.34 10.0103H8.84ZM8.88181 10.08V10.58C9.06195 10.58 9.22816 10.4831 9.31691 10.3263C9.40566 10.1696 9.40324 9.97722 9.31056 9.82275L8.88181 10.08ZM11.16 9.92252H11.66C11.66 9.64638 11.4361 9.42252 11.16 9.42252V9.92252ZM11.16 9.98968L10.7313 10.2469C10.8469 10.4396 11.0769 10.5315 11.2935 10.4715C11.5101 10.4115 11.66 10.2144 11.66 9.98968H11.16ZM11.1197 9.92252V9.42252C10.9396 9.42252 10.7734 9.51942 10.6846 9.67617C10.5958 9.83292 10.5983 10.0253 10.691 10.1798L11.1197 9.92252ZM12.16 13.6L11.7313 13.8572C11.8469 14.05 12.0769 14.1418 12.2935 14.0819C12.5101 14.0219 12.66 13.8247 12.66 13.6H12.16ZM11.248 12.08V11.58C11.0679 11.58 10.9017 11.6769 10.8129 11.8337C10.7241 11.9904 10.7266 12.1828 10.8193 12.3372L11.248 12.08ZM12.16 12.08H12.66C12.66 11.8039 12.4361 11.58 12.16 11.58V12.08ZM12.0707 12.08V11.58C11.9069 11.58 11.7535 11.6602 11.66 11.7948L12.0707 12.08ZM11.7935 12.2767L11.9269 12.7586H11.9269L11.7935 12.2767ZM11.2493 12.08L11.6601 11.795C11.5667 11.6603 11.4132 11.58 11.2493 11.58V12.08ZM2 3.7C2 2.76098 2.76098 2 3.7 2V1C2.2087 1 1 2.2087 1 3.7H2ZM2 16.3V3.7H1V16.3H2ZM3.7 18C2.76119 18 2 17.2383 2 16.3H1C1 17.7904 2.20871 19 3.7 19V18ZM16.3 18H3.7V19H16.3V18ZM18 16.3C18 17.2383 17.2388 18 16.3 18V19C17.7913 19 19 17.7904 19 16.3H18ZM18 3.7V16.3H19V3.7H18ZM16.3 2C17.239 2 18 2.76098 18 3.7H19C19 2.2087 17.7913 1 16.3 1V2ZM3.7 2H16.3V1H3.7V2ZM3.7 0C1.65642 0 0 1.65642 0 3.7H1C1 2.2087 2.2087 1 3.7 1V0ZM16.3 0H3.7V1H16.3V0ZM20 3.7C20 1.65642 18.3436 0 16.3 0V1C17.7913 1 19 2.2087 19 3.7H20ZM20 16.3V3.7H19V16.3H20ZM16.3 20C18.3438 20 20 18.3425 20 16.3H19C19 17.7904 17.7913 19 16.3 19V20ZM3.7 20H16.3V19H3.7V20ZM0 16.3C0 18.3425 1.65619 20 3.7 20V19C2.20871 19 1 17.7904 1 16.3H0ZM0 3.7V16.3H1V3.7H0ZM9.12624 5.62826C8.77936 5.05012 8.08936 4.77446 7.4396 4.95443L7.70653 5.91814C7.92312 5.85815 8.15312 5.95004 8.26875 6.14275L9.12624 5.62826ZM10.3484 7.66527L9.12624 5.62826L8.26875 6.14275L9.49096 8.17977L10.3484 7.66527ZM11.16 7.42252H9.9197V8.42252H11.16V7.42252ZM10.66 6.4V7.92252H11.66V6.4H10.66ZM12.16 4.9C11.3316 4.9 10.66 5.57157 10.66 6.4H11.66C11.66 6.12386 11.8839 5.9 12.16 5.9V4.9ZM13.66 6.4C13.66 5.57157 12.9884 4.9 12.16 4.9V5.9C12.4361 5.9 12.66 6.12386 12.66 6.4H13.66ZM13.66 7.92252V6.4H12.66V7.92252H13.66ZM13.6 7.42252H13.16V8.42252H13.6V7.42252ZM15.1 8.92252C15.1 8.09409 14.4284 7.42252 13.6 7.42252V8.42252C13.8761 8.42252 14.1 8.64638 14.1 8.92252H15.1ZM13.6 10.4225C14.4284 10.4225 15.1 9.75095 15.1 8.92252H14.1C14.1 9.19866 13.8761 9.42252 13.6 9.42252V10.4225ZM13.16 10.4225H13.6V9.42252H13.16V10.4225ZM13.66 10.08V9.92252H12.66V10.08H13.66ZM13.6 9.58H13.16V10.58H13.6V9.58ZM15.1 11.08C15.1 10.2516 14.4284 9.58 13.6 9.58V10.58C13.8761 10.58 14.1 10.8039 14.1 11.08H15.1ZM13.6 12.58C14.4284 12.58 15.1 11.9084 15.1 11.08H14.1C14.1 11.3561 13.8761 11.58 13.6 11.58V12.58ZM13.16 12.58H13.6V11.58H13.16V12.58ZM13.66 13.6V12.08H12.66V13.6H13.66ZM12.5604 15.0456C13.2102 14.8656 13.66 14.2742 13.66 13.6H12.66C12.66 13.8247 12.5101 14.0219 12.2935 14.0819L12.5604 15.0456ZM10.8738 14.3717C11.2206 14.9499 11.9106 15.2255 12.5604 15.0456L12.2935 14.0819C12.0769 14.1418 11.8469 14.05 11.7313 13.8572L10.8738 14.3717ZM9.65306 12.3372L10.8738 14.3717L11.7313 13.8572L10.5106 11.8228L9.65306 12.3372ZM8.84 12.58H10.0818V11.58H8.84V12.58ZM9.34 13.6V12.08H8.34V13.6H9.34ZM7.84 15.1C8.66843 15.1 9.34 14.4284 9.34 13.6H8.34C8.34 13.8761 8.11614 14.1 7.84 14.1V15.1ZM6.34 13.6C6.34 14.4284 7.01157 15.1 7.84 15.1V14.1C7.56386 14.1 7.34 13.8761 7.34 13.6H6.34ZM6.34 12.08V13.6H7.34V12.08H6.34ZM6.4 12.58H6.84V11.58H6.4V12.58ZM4.9 11.08C4.9 11.9084 5.57157 12.58 6.4 12.58V11.58C6.12386 11.58 5.9 11.3561 5.9 11.08H4.9ZM6.4 9.58C5.57157 9.58 4.9 10.2516 4.9 11.08H5.9C5.9 10.8039 6.12386 10.58 6.4 10.58V9.58ZM6.84 9.58H6.4V10.58H6.84V9.58ZM6.34 9.92252V10.08H7.34V9.92252H6.34ZM6.4 10.4225H6.84V9.42252H6.4V10.4225ZM4.9 8.92252C4.9 9.75095 5.57157 10.4225 6.4 10.4225V9.42252C6.12386 9.42252 5.9 9.19866 5.9 8.92252H4.9ZM6.4 7.42252C5.57157 7.42252 4.9 8.09409 4.9 8.92252H5.9C5.9 8.64638 6.12386 8.42252 6.4 8.42252V7.42252ZM6.84 7.42252H6.4V8.42252H6.84V7.42252ZM6.34 6.4V7.92252H7.34V6.4H6.34ZM7.4396 4.95443C6.78984 5.1344 6.34 5.72578 6.34 6.4H7.34C7.34 6.17526 7.48995 5.97813 7.70653 5.91814L7.4396 4.95443ZM7.92755 7.42252H7.84V8.42252H7.92755V7.42252ZM8.34 7.92252V6.4H7.34V7.92252H8.34ZM7.41125 6.65725L8.32477 8.17977L9.18226 7.66527L8.26875 6.14275L7.41125 6.65725ZM8.75351 7.42252H8.75246V8.42252H8.75351V7.42252ZM9.16503 7.64006C8.9249 7.28932 8.48683 7.12684 8.07307 7.24144L8.34 8.20516L8.33989 8.20499L9.16503 7.64006ZM8.07307 7.24144C7.8397 7.30608 7.64485 7.45059 7.51514 7.63982L8.33996 8.20522L8.34 8.20516L8.07307 7.24144ZM9.34 10.08V10.0103H8.34V10.08H9.34ZM8.88181 9.58H8.84V10.58H8.88181V9.58ZM8.41125 10.2676L8.45306 10.3372L9.31056 9.82275L9.26875 9.75307L8.41125 10.2676ZM10.66 9.92252V9.98968H11.66V9.92252H10.66ZM11.1197 10.4225H11.16V9.42252H11.1197V10.4225ZM11.5887 9.73244L11.5484 9.66527L10.691 10.1798L10.7313 10.2469L11.5887 9.73244ZM12.5887 13.3428L11.6767 11.8228L10.8193 12.3372L11.7313 13.8572L12.5887 13.3428ZM11.66 12.08V13.6H12.66V12.08H11.66ZM12.0707 12.58H12.16V11.58H12.0707V12.58ZM11.9269 12.7586C12.1582 12.6945 12.3517 12.552 12.4814 12.3652L11.66 11.7948L11.66 11.7948L11.9269 12.7586ZM10.8384 12.365C11.0793 12.7122 11.5152 12.8726 11.9269 12.7586L11.66 11.7948L11.6601 11.795L10.8384 12.365ZM11.248 12.58H11.2493V11.58H11.248V12.58Z" fill="#7F919B"/>
</svg>
