<svg width="45" height="42" viewBox="0 0 45 42" fill="none" xmlns="http://www.w3.org/2000/svg">
<ellipse cx="22.3327" cy="21" rx="22.1667" ry="21" fill="#F9EED2"/>
<path fill-rule="evenodd" clip-rule="evenodd" d="M21.8806 29.429C26.8757 29.429 30.9283 25.5897 30.9283 20.8576C30.9283 16.1254 26.8757 12.2861 21.8806 12.2861C16.8856 12.2861 12.833 16.1254 12.833 20.8576C12.833 25.5897 16.8856 29.429 21.8806 29.429ZM23.3883 16.2151V14.4294C23.3883 14.2285 23.2233 14.0723 23.0113 14.0723H20.7494C20.5373 14.0723 20.3724 14.2285 20.3724 14.4294V16.2151C20.3724 16.416 20.5373 16.5723 20.7494 16.5723L23.0113 16.5723C23.2233 16.5723 23.3883 16.416 23.3883 16.2151ZM24.8961 26.2143V24.4286C24.8961 24.2277 24.7311 24.0714 24.5191 24.0714H23.3881V18.3571C23.3881 18.1562 23.2232 18 23.0111 18H19.2413C19.0292 18 18.8643 18.1562 18.8643 18.3571V20.1429C18.8643 20.3438 19.0292 20.5 19.2413 20.5H20.3723V24.0714H19.2413C19.0292 24.0714 18.8643 24.2277 18.8643 24.4286V26.2143C18.8643 26.4152 19.0292 26.5714 19.2413 26.5714H24.5191C24.7311 26.5714 24.8961 26.4152 24.8961 26.2143Z" fill="#FF6A6A"/>
</svg>
