<svg width="20" height="20" viewBox="0 0 20 20" fill="none" xmlns="http://www.w3.org/2000/svg">
<path d="M1 14C0.723858 14 0.5 14.2239 0.5 14.5C0.5 14.7761 0.723858 15 1 15V14ZM12.25 15C12.5261 15 12.75 14.7761 12.75 14.5C12.75 14.2239 12.5261 14 12.25 14V15ZM5.85355 10.3536C6.04882 10.1583 6.04882 9.84171 5.85355 9.64645C5.65829 9.45118 5.34171 9.45118 5.14645 9.64645L5.85355 10.3536ZM1 14.5L0.646447 14.1464C0.451184 14.3417 0.451184 14.6583 0.646447 14.8536L1 14.5ZM5.14645 19.3536C5.34171 19.5488 5.65829 19.5488 5.85355 19.3536C6.04882 19.1583 6.04882 18.8417 5.85355 18.6464L5.14645 19.3536ZM19 6C19.2761 6 19.5 5.77614 19.5 5.5C19.5 5.22386 19.2761 5 19 5V6ZM7.75 5C7.47386 5 7.25 5.22386 7.25 5.5C7.25 5.77614 7.47386 6 7.75 6V5ZM14.1464 9.64645C13.9512 9.84171 13.9512 10.1583 14.1464 10.3536C14.3417 10.5488 14.6583 10.5488 14.8536 10.3536L14.1464 9.64645ZM19 5.5L19.3536 5.85355C19.5488 5.65829 19.5488 5.34171 19.3536 5.14645L19 5.5ZM14.8536 0.646447C14.6583 0.451184 14.3417 0.451184 14.1464 0.646447C13.9512 0.841709 13.9512 1.15829 14.1464 1.35355L14.8536 0.646447ZM1 15H12.25V14H1V15ZM5.14645 9.64645L0.646447 14.1464L1.35355 14.8536L5.85355 10.3536L5.14645 9.64645ZM0.646447 14.8536L5.14645 19.3536L5.85355 18.6464L1.35355 14.1464L0.646447 14.8536ZM19 5H7.75V6H19V5ZM14.8536 10.3536L19.3536 5.85355L18.6464 5.14645L14.1464 9.64645L14.8536 10.3536ZM19.3536 5.14645L14.8536 0.646447L14.1464 1.35355L18.6464 5.85355L19.3536 5.14645Z" fill="#311B92"/>
</svg>
