<svg width="22" height="22" viewBox="0 0 22 22" fill="none" xmlns="http://www.w3.org/2000/svg">
<path d="M1 15.5C0.723858 15.5 0.5 15.7239 0.5 16C0.5 16.2761 0.723858 16.5 1 16.5V15.5ZM13.5 16.5C13.7761 16.5 14 16.2761 14 16C14 15.7239 13.7761 15.5 13.5 15.5V16.5ZM6.35355 11.3536C6.54882 11.1583 6.54882 10.8417 6.35355 10.6464C6.15829 10.4512 5.84171 10.4512 5.64645 10.6464L6.35355 11.3536ZM1 16L0.646447 15.6464C0.451184 15.8417 0.451184 16.1583 0.646447 16.3536L1 16ZM5.64645 21.3536C5.84171 21.5488 6.15829 21.5488 6.35355 21.3536C6.54882 21.1583 6.54882 20.8417 6.35355 20.6464L5.64645 21.3536ZM21 6.5C21.2761 6.5 21.5 6.27614 21.5 6C21.5 5.72386 21.2761 5.5 21 5.5V6.5ZM8.5 5.5C8.22386 5.5 8 5.72386 8 6C8 6.27614 8.22386 6.5 8.5 6.5V5.5ZM15.6464 10.6464C15.4512 10.8417 15.4512 11.1583 15.6464 11.3536C15.8417 11.5488 16.1583 11.5488 16.3536 11.3536L15.6464 10.6464ZM21 6L21.3536 6.35355C21.5488 6.15829 21.5488 5.84171 21.3536 5.64645L21 6ZM16.3536 0.646447C16.1583 0.451184 15.8417 0.451184 15.6464 0.646447C15.4512 0.841709 15.4512 1.15829 15.6464 1.35355L16.3536 0.646447ZM1 16.5H13.5V15.5H1V16.5ZM5.64645 10.6464L0.646447 15.6464L1.35355 16.3536L6.35355 11.3536L5.64645 10.6464ZM0.646447 16.3536L5.64645 21.3536L6.35355 20.6464L1.35355 15.6464L0.646447 16.3536ZM21 5.5H8.5V6.5H21V5.5ZM16.3536 11.3536L21.3536 6.35355L20.6464 5.64645L15.6464 10.6464L16.3536 11.3536ZM21.3536 5.64645L16.3536 0.646447L15.6464 1.35355L20.6464 6.35355L21.3536 5.64645Z" fill="#311B92"/>
</svg>
