<svg width="22" height="22" viewBox="0 0 22 22" fill="none" xmlns="http://www.w3.org/2000/svg">
<path d="M17 14.834C17.2761 14.834 17.5 14.6101 17.5 14.334C17.5 14.0579 17.2761 13.834 17 13.834V14.834ZM11.333 1L11.3333 0.5H11.333V1ZM14.334 4H14.834V3.9997L14.334 4ZM13.834 5C13.834 5.27614 14.0579 5.5 14.334 5.5C14.6101 5.5 14.834 5.27614 14.834 5H13.834ZM14.5256 11.1524C14.3303 10.9572 14.0137 10.9572 13.8184 11.1524C13.6232 11.3477 13.6232 11.6643 13.8184 11.8596L14.5256 11.1524ZM17 14.334L17.3536 14.6875C17.5488 14.4922 17.5488 14.1757 17.3536 13.9804L17 14.334ZM13.8184 16.8095C13.6232 17.0048 13.6232 17.3214 13.8185 17.5166C14.0138 17.7118 14.3304 17.7118 14.5256 17.5165L13.8184 16.8095ZM7.47545 10.8486C7.67071 11.0438 7.98729 11.0438 8.18255 10.8486C8.37782 10.6533 8.37782 10.3367 8.18255 10.1414L7.47545 10.8486ZM5 7.666L4.64651 7.31238C4.55271 7.40615 4.50001 7.53333 4.5 7.66596C4.49999 7.79858 4.55267 7.92577 4.64645 8.01955L5 7.666ZM8.18249 5.19162C8.37779 4.99639 8.37784 4.67981 8.18262 4.48451C7.98739 4.28921 7.67081 4.28916 7.47551 4.48438L8.18249 5.19162ZM5.00004 7.166C4.7239 7.16598 4.50002 7.38982 4.5 7.66596C4.49998 7.9421 4.72382 8.16598 4.99996 8.166L5.00004 7.166ZM18 7.667L18 8.167H18V7.667ZM7.667 18H8.167L8.167 17.9995L7.667 18ZM8.166 16.9995C8.16572 16.7234 7.94164 16.4997 7.6655 16.5C7.38936 16.5003 7.16572 16.7244 7.166 17.0005L8.166 16.9995ZM17 13.834H4V14.834H17V13.834ZM4 13.834C2.61925 13.834 1.5 12.714 1.5 11.334H0.5C0.5 13.266 2.06675 14.834 4 14.834V13.834ZM1.5 11.334V4H0.5V11.334H1.5ZM1.5 4C1.5 2.61914 2.61914 1.5 4 1.5V0.5C2.06686 0.5 0.5 2.06686 0.5 4H1.5ZM4 1.5H11.333V0.5H4V1.5ZM11.3327 1.5C12.7139 1.50083 13.8332 2.62032 13.834 4.0003L14.834 3.9997C14.8328 2.06768 13.2661 0.501167 11.3333 0.5L11.3327 1.5ZM13.834 4V5H14.834V4H13.834ZM13.8184 11.8596L16.6464 14.6876L17.3536 13.9804L14.5256 11.1524L13.8184 11.8596ZM16.6464 13.9805L13.8184 16.8095L14.5256 17.5165L17.3536 14.6875L16.6464 13.9805ZM8.18255 10.1414L5.35355 7.31245L4.64645 8.01955L7.47545 10.8486L8.18255 10.1414ZM5.35349 8.01962L8.18249 5.19162L7.47551 4.48438L4.64651 7.31238L5.35349 8.01962ZM4.99996 8.166L18 8.167L18 7.167L5.00004 7.166L4.99996 8.166ZM18 8.167C19.3809 8.167 20.5 9.28614 20.5 10.667H21.5C21.5 8.73386 19.9331 7.167 18 7.167V8.167ZM20.5 10.667V18H21.5V10.667H20.5ZM20.5 18C20.5 19.3809 19.3809 20.5 18 20.5V21.5C19.9331 21.5 21.5 19.9331 21.5 18H20.5ZM18 20.5H10.667V21.5H18V20.5ZM10.667 20.5C9.28614 20.5 8.167 19.3809 8.167 18H7.167C7.167 19.9331 8.73386 21.5 10.667 21.5V20.5ZM8.167 17.9995L8.166 16.9995L7.166 17.0005L7.167 18.0005L8.167 17.9995Z" fill="black"/>
</svg>
