<svg width="47" height="20" viewBox="0 0 47 20" fill="none" xmlns="http://www.w3.org/2000/svg">
<path fill-rule="evenodd" clip-rule="evenodd" d="M15.631 0H21.2754C21.931 0 22.5831 0.0462958 23.2317 0.138889C23.8802 0.231482 24.4503 0.416665 24.9421 0.694444C25.4338 0.972224 25.808 1.3604 26.0645 1.85897C26.3211 2.35755 26.3923 3.01994 26.2783 3.84615C26.1643 4.70086 25.8258 5.40954 25.2628 5.97222C24.6997 6.5349 24.012 6.93732 23.1996 7.17949V7.22222C23.6842 7.29345 24.1154 7.43233 24.4931 7.63889C24.8708 7.84544 25.1808 8.10897 25.4231 8.42949C25.6654 8.75 25.8365 9.12393 25.9362 9.55128C26.036 9.97863 26.0503 10.4345 25.979 10.9188C25.865 11.7165 25.6013 12.3825 25.1879 12.9167C24.7746 13.4509 24.2757 13.8818 23.6913 14.2094C23.1069 14.537 22.4655 14.7721 21.7671 14.9145C21.0687 15.057 20.3845 15.1282 19.7146 15.1282H13.5144L15.631 0ZM5.10984 4.74359H2.15939L0 20H3.20701L4.06222 14.0171H4.10498C4.39004 14.5157 4.81052 14.8682 5.3664 15.0748C5.92229 15.2813 6.53518 15.3846 7.20509 15.3846C7.94627 15.3846 8.63042 15.2315 9.25758 14.9252C9.88473 14.6189 10.437 14.2094 10.9145 13.6966C11.392 13.1838 11.7876 12.5962 12.1011 11.9338C12.4147 11.2714 12.6214 10.5769 12.7211 9.85043C12.8352 9.06695 12.8174 8.34758 12.6677 7.69231C12.518 7.03703 12.2508 6.4708 11.8659 5.99359C11.4811 5.51638 10.9929 5.14601 10.4014 4.88248C9.80989 4.61894 9.1293 4.48718 8.35961 4.48718C7.98902 4.48718 7.63269 4.53704 7.29061 4.63675C6.94853 4.73647 6.63139 4.86467 6.33919 5.02137C6.047 5.17806 5.77975 5.35256 5.53744 5.54487C5.29513 5.73718 5.10271 5.92592 4.96018 6.11111H4.91742L5.10984 4.74359ZM4.77845 11.8376C4.40073 11.3533 4.26889 10.7194 4.38292 9.9359C4.49694 9.15242 4.81052 8.51852 5.32364 8.03419C5.83677 7.54986 6.49954 7.30769 7.31199 7.30769C8.12444 7.30769 8.72307 7.54986 9.10792 8.03419C9.49276 8.51852 9.62816 9.15242 9.51414 9.9359C9.40011 10.7194 9.08297 11.3533 8.56272 11.8376C8.04247 12.3219 7.37613 12.5641 6.56369 12.5641C5.75124 12.5641 5.15617 12.3219 4.77845 11.8376ZM20.5271 6.04701H18.1111L18.5601 2.82051H20.8264C21.083 2.82051 21.3431 2.84544 21.6068 2.8953C21.8705 2.94516 22.1021 3.02707 22.3016 3.14103C22.5012 3.25499 22.6544 3.41524 22.7613 3.62179C22.8682 3.82835 22.9003 4.08832 22.8575 4.40171C22.8147 4.70086 22.7185 4.95726 22.5689 5.17094C22.4192 5.38462 22.2339 5.55555 22.013 5.68376C21.7921 5.81197 21.5533 5.90456 21.2968 5.96154C21.0402 6.01852 20.7836 6.04701 20.5271 6.04701ZM17.2345 12.3077H20.2278C20.4843 12.3077 20.7516 12.2792 21.0295 12.2222C21.3074 12.1652 21.5604 12.0655 21.7885 11.9231C22.0166 11.7806 22.2161 11.5954 22.3871 11.3675C22.5582 11.1396 22.6651 10.8618 22.7078 10.5342C22.7506 10.1781 22.7007 9.8896 22.5582 9.6688C22.4156 9.448 22.2161 9.28063 21.9595 9.16667C21.703 9.05271 21.4215 8.97436 21.115 8.93162C20.8086 8.88889 20.5199 8.86752 20.2491 8.86752H17.7263L17.2345 12.3077ZM27.2961 7.69231C26.9041 8.36183 26.6511 9.10968 26.5371 9.9359C26.423 10.7621 26.4694 11.51 26.676 12.1795C26.8827 12.849 27.2105 13.4224 27.6595 13.8996C28.1085 14.3768 28.6679 14.7436 29.3379 15C30.0078 15.2564 30.7418 15.3846 31.54 15.3846C32.3382 15.3846 33.1079 15.2564 33.8491 15C34.5902 14.7436 35.253 14.3768 35.8374 13.8996C36.4218 13.4224 36.9135 12.849 37.3126 12.1795C37.7117 11.51 37.9683 10.7621 38.0823 9.9359C38.1963 9.10968 38.15 8.36183 37.9433 7.69231C37.7367 7.02279 37.4053 6.44943 36.9492 5.97222C36.4931 5.49501 35.9301 5.12821 35.2601 4.87179C34.5902 4.61538 33.8562 4.48718 33.058 4.48718C32.2598 4.48718 31.4901 4.61538 30.7489 4.87179C30.0078 5.12821 29.345 5.49501 28.7606 5.97222C28.1762 6.44943 27.688 7.02279 27.2961 7.69231ZM29.7441 9.9359C29.6301 10.7194 29.7619 11.3533 30.1396 11.8376C30.5173 12.3219 31.1124 12.5641 31.9248 12.5641C32.7373 12.5641 33.4036 12.3219 33.9239 11.8376C34.4441 11.3533 34.7613 10.7194 34.8753 9.9359C34.9893 9.15242 34.8539 8.51852 34.4691 8.03419C34.0842 7.54986 33.4856 7.30769 32.6732 7.30769C31.8607 7.30769 31.1979 7.54986 30.6848 8.03419C30.1717 8.51852 29.8581 9.15242 29.7441 9.9359ZM43.8144 7.30769H46.6365L47 4.74359H44.1778L44.6054 1.66667H41.3984L40.9708 4.74359H38.9183L38.5549 7.30769H40.6074L39.9018 12.2436C39.8305 12.8134 39.8626 13.2977 39.998 13.6966C40.1334 14.0954 40.3544 14.4195 40.6608 14.6688C40.9673 14.9181 41.3414 15.0997 41.7833 15.2137C42.2251 15.3276 42.7169 15.3846 43.2585 15.3846C43.6291 15.3846 44.0103 15.3632 44.4023 15.3205C44.7943 15.2778 45.1756 15.1923 45.5462 15.0641L45.9096 12.3932C45.7528 12.5214 45.5355 12.6033 45.2575 12.6389C44.9796 12.6745 44.7551 12.6923 44.584 12.6923C44.242 12.6923 43.9747 12.646 43.7823 12.5534C43.5899 12.4608 43.4545 12.3291 43.3761 12.1581C43.2977 11.9872 43.2585 11.7842 43.2585 11.5491C43.2585 11.3141 43.2799 11.0541 43.3226 10.7692L43.8144 7.30769Z" fill="#311B92"/>
</svg>
