<?xml version="1.0" encoding="UTF-8"?>
<svg width="58px" height="24px" viewBox="0 0 58 24" version="1.1" xmlns="http://www.w3.org/2000/svg" xmlns:xlink="http://www.w3.org/1999/xlink">
    <!-- Generator: Sketch 54.1 (76490) - https://sketchapp.com -->
    <title>Group 2</title>
    <desc>Created with Sketch.</desc>
    <g id="Page-1" stroke="none" stroke-width="1" fill="none" fill-rule="evenodd">
        <g id="A4-Copy" transform="translate(-46.000000, -49.000000)">
            <g id="Group-2" transform="translate(46.000000, 49.000000)">
                <g id="icon">
                    <g id="Group" fill="#311B92">
                        <ellipse id="Oval" cx="11.9687825" cy="12" rx="11.9687825" ry="11.7108434"></ellipse>
                    </g>
                    <g id="symbol" transform="translate(11.955453, 12.703533) rotate(90.000000) translate(-11.955453, -12.703533) translate(7.955453, 7.703533)" fill="#FDF9EF">
                        <path d="M1.02150538,1.6563147 C1.58566722,1.6563147 2.04301075,2.14376998 2.04301075,2.74507654 L2.04301075,8.43504768 C2.04301075,9.03635424 1.58566722,9.52380952 1.02150538,9.52380952 C0.457343535,9.52380952 5.70166272e-16,9.03635424 0,8.43504768 L6.85280233e-16,2.74507654 C6.16190334e-16,2.14376998 0.457343535,1.6563147 1.02150538,1.6563147 Z M3.88172043,0 C4.44588227,-1.09432296e-16 4.90322581,0.482927833 4.90322581,1.07864951 L4.90322581,5.54660929 C4.90322581,6.14233097 4.44588227,6.6252588 3.88172043,6.6252588 C3.31755859,6.6252588 2.86021505,6.14233097 2.86021505,5.54660929 L2.86021505,1.07864951 C2.86021505,0.482927833 3.31755859,1.09432296e-16 3.88172043,0 Z M6.33333333,1.6563147 C6.89749517,1.6563147 7.35483871,2.15476521 7.35483871,2.76963508 L7.35483871,7.58233179 C7.35483871,8.19720166 6.89749517,8.69565217 6.33333333,8.69565217 C5.76917149,8.69565217 5.31182796,8.19720166 5.31182796,7.58233179 L5.31182796,2.76963508 C5.31182796,2.15476521 5.76917149,1.6563147 6.33333333,1.6563147 Z" id="Shape"></path>
                    </g>
                </g>
                <path d="M29.378333,10.0833333 L31.2615998,10.0833333 L31.1387781,10.9722222 L31.1660718,10.9722222 C31.2570513,10.8518513 31.3798719,10.7291673 31.5345371,10.6041667 C31.6892023,10.479166 31.8597863,10.3657413 32.0462944,10.2638889 C32.2328024,10.1620365 32.4352288,10.078704 32.6535797,10.0138889 C32.8719306,9.94907375 33.099376,9.91666667 33.3359227,9.91666667 C33.8272122,9.91666667 34.2616329,10.002314 34.639198,10.1736111 C35.016763,10.3449083 35.3283633,10.5856466 35.574008,10.8958333 C35.8196527,11.2060201 35.9902368,11.5740719 36.0857653,12 C36.1812938,12.4259281 36.1926661,12.893516 36.1198824,13.4027778 C36.0561968,13.8750024 35.9242784,14.3263867 35.7241235,14.7569444 C35.5239685,15.1875022 35.2715041,15.5694428 34.9667227,15.9027778 C34.6619412,16.2361128 34.3094009,16.5023138 33.9090909,16.7013889 C33.508781,16.900464 33.0720858,17 32.5989922,17 C32.1713885,17 31.7801823,16.932871 31.4253622,16.7986111 C31.070542,16.6643512 30.8021564,16.4351868 30.6201974,16.1111111 L30.5929036,16.1111111 L30.0470292,20 L28,20 L29.378333,10.0833333 Z M30.7976066,13.4583333 C30.7248229,13.9675951 30.8089777,14.3796281 31.0500735,14.6944444 C31.2911692,15.0092608 31.6710031,15.1666667 32.1895864,15.1666667 C32.7081697,15.1666667 33.1334926,15.0092608 33.4655679,14.6944444 C33.7976432,14.3796281 34.0000696,13.9675951 34.0728533,13.4583333 C34.1456369,12.9490715 34.0592076,12.5370386 33.8135629,12.2222222 C33.5679182,11.9074058 33.1858099,11.75 32.6672265,11.75 C32.1486432,11.75 31.7255948,11.9074058 31.3980685,12.2222222 C31.0705421,12.5370386 30.8703902,12.9490715 30.7976066,13.4583333 Z M37.9772552,7 L41.5800266,7 C41.9985324,7 42.4147575,7.03009229 42.8287144,7.09027778 C43.2426713,7.15046326 43.6065839,7.27083243 43.9204633,7.45138889 C44.2343427,7.63194535 44.4731604,7.88425764 44.6369235,8.20833333 C44.8006867,8.53240903 44.8461758,8.96296028 44.7733921,9.5 C44.7006085,10.0555583 44.4845354,10.5162019 44.1251662,10.8819444 C43.7657971,11.247687 43.3268274,11.5092585 42.8082441,11.6666667 L42.8082441,11.6944444 C43.1175745,11.740741 43.3927835,11.8310178 43.6338792,11.9652778 C43.874975,12.0995377 44.0728525,12.2708323 44.2275177,12.4791667 C44.3821829,12.687501 44.4913567,12.9305542 44.5550424,13.2083333 C44.618728,13.4861125 44.6278258,13.7824058 44.5823361,14.0972222 C44.5095525,14.6157433 44.3412428,15.0486094 44.0774022,15.3958333 C43.8135616,15.7430573 43.495138,16.0231471 43.1221219,16.2361111 C42.7491059,16.4490751 42.3397041,16.6018514 41.8939044,16.6944444 C41.4481047,16.7870375 41.0114095,16.8333333 40.5838057,16.8333333 L36.626216,16.8333333 L37.9772552,7 Z M39.5602911,10.9305556 L41.1023865,10.9305556 C41.2661496,10.9305556 41.4299103,10.9120372 41.5936735,10.875 C41.7574366,10.8379628 41.909825,10.7777782 42.0508433,10.6944444 C42.1918616,10.6111107 42.3101332,10.5000007 42.4056617,10.3611111 C42.5011902,10.2222215 42.5626005,10.0555565 42.5898943,9.86111111 C42.6171882,9.65740639 42.5967181,9.4884266 42.5284835,9.35416667 C42.4602488,9.21990674 42.3624473,9.11574111 42.2350759,9.04166667 C42.1077046,8.96759222 41.9598651,8.91435201 41.791553,8.88194444 C41.6232408,8.84953687 41.4572057,8.83333333 41.2934425,8.83333333 L39.8468752,8.83333333 L39.5602911,10.9305556 Z M39.0007698,15 L40.9113304,15 C41.0750936,15 41.2456776,14.9814817 41.4230877,14.9444444 C41.6004978,14.9074072 41.761984,14.8425931 41.9075513,14.75 C42.0531185,14.6574069 42.180488,14.5370378 42.2896634,14.3888889 C42.3988388,14.24074 42.4670724,14.0601863 42.4943663,13.8472222 C42.5216602,13.6157396 42.4898178,13.4282415 42.3988383,13.2847222 C42.3078587,13.141203 42.1804893,13.0324078 42.0167262,12.9583333 C41.852963,12.8842589 41.6732811,12.8333335 41.4776751,12.8055556 C41.2820692,12.7777776 41.0978384,12.7638889 40.9249773,12.7638889 L39.3146476,12.7638889 L39.0007698,15 Z M44.9385541,13.4583333 C45.0113377,12.9212936 45.172824,12.4351874 45.4230177,12 C45.6732114,11.5648126 45.9848116,11.1921312 46.3578277,10.8819444 C46.7308438,10.5717577 47.1538922,10.3333342 47.6269858,10.1666667 C48.1000793,9.99999917 48.5913614,9.91666667 49.1008468,9.91666667 C49.6103322,9.91666667 50.0788697,9.99999917 50.5064735,10.1666667 C50.9340773,10.3333342 51.2934411,10.5717577 51.5845756,10.8819444 C51.8757101,11.1921312 52.0872343,11.5648126 52.2191546,12 C52.3510749,12.4351874 52.3806428,12.9212936 52.3078592,13.4583333 C52.2350756,13.9953731 52.0713149,14.4814793 51.8165722,14.9166667 C51.5618295,15.351854 51.2479548,15.7245355 50.8749388,16.0347222 C50.5019227,16.344909 50.0788742,16.5833325 49.6057807,16.75 C49.1326871,16.9166675 48.641405,17 48.1319197,17 C47.6224343,17 47.1538967,16.9166675 46.7262929,16.75 C46.2986892,16.5833325 45.9415999,16.344909 45.6550143,16.0347222 C45.3684288,15.7245355 45.159179,15.351854 45.0272587,14.9166667 C44.8953384,14.4814793 44.8657705,13.9953731 44.9385541,13.4583333 Z M46.9855833,13.4583333 C46.9127997,13.9675951 46.9969545,14.3796281 47.2380502,14.6944444 C47.479146,15.0092608 47.8589798,15.1666667 48.3775632,15.1666667 C48.8961465,15.1666667 49.3214694,15.0092608 49.6535447,14.6944444 C49.98562,14.3796281 50.1880464,13.9675951 50.26083,13.4583333 C50.3336136,12.9490715 50.2471844,12.5370386 50.0015397,12.2222222 C49.7558949,11.9074058 49.3737866,11.75 48.8552033,11.75 C48.33662,11.75 47.9135715,11.9074058 47.5860452,12.2222222 C47.2585189,12.5370386 47.0583669,12.9490715 46.9855833,13.4583333 Z M57.7680034,11.75 L55.9666177,11.75 L55.6527399,14 C55.625446,14.1851861 55.6117993,14.3541659 55.6117993,14.5069444 C55.6117993,14.659723 55.6368183,14.7916661 55.686857,14.9027778 C55.7368958,15.0138894 55.823325,15.0995367 55.9461474,15.1597222 C56.0689697,15.2199077 56.2395538,15.25 56.4579047,15.25 C56.5670801,15.25 56.7103707,15.238426 56.8877808,15.2152778 C57.0651909,15.1921295 57.2039326,15.1388893 57.3040101,15.0555556 L57.0720134,16.7916667 C56.8354667,16.8750004 56.5921001,16.9305554 56.3419064,16.9583333 C56.0917127,16.9861112 55.8483461,17 55.6117993,17 C55.2660771,17 54.9522024,16.9629633 54.6701659,16.8888889 C54.3881293,16.8148144 54.1493116,16.6967601 53.9537056,16.5347222 C53.7580996,16.3726844 53.6170835,16.1620383 53.5306529,15.9027778 C53.4442224,15.6435172 53.4237523,15.3287056 53.4692421,14.9583333 L53.9195885,11.75 L52.6094898,11.75 L52.8414864,10.0833333 L54.1515851,10.0833333 L54.4245224,8.08333333 L56.4715515,8.08333333 L56.1986143,10.0833333 L58,10.0833333 L57.7680034,11.75 Z" id="pBot" fill="#311B92" fill-rule="nonzero"></path>
            </g>
        </g>
    </g>
</svg>