<svg width="44" height="44" viewBox="0 0 44 44" fill="none" xmlns="http://www.w3.org/2000/svg">
<path d="M2.5 42.8852C2.5 32.0624 11.2747 23.2857 22.0995 23.2857V22.2857C10.7224 22.2857 1.5 31.5101 1.5 42.8852H2.5ZM1.5 43.8852C2.05228 43.8852 2.5 43.4374 2.5 42.8852H1.5V43.8852ZM0.5 42.8852C0.5 43.4374 0.947715 43.8852 1.5 43.8852V42.8852H0.5ZM22.0995 21.2857C10.17 21.2857 0.5 30.9579 0.5 42.8852H1.5C1.5 31.5101 10.7224 22.2857 22.0995 22.2857V21.2857ZM43.6989 42.8852C43.6989 30.9579 34.0268 21.2857 22.0995 21.2857V22.2857C33.4745 22.2857 42.6989 31.5101 42.6989 42.8852H43.6989ZM42.6989 43.8852C43.2512 43.8852 43.6989 43.4374 43.6989 42.8852H42.6989V43.8852ZM41.6989 42.8852C41.6989 43.4374 42.1466 43.8852 42.6989 43.8852V42.8852H41.6989ZM22.0995 23.2857C32.9222 23.2857 41.6989 32.0624 41.6989 42.8852H42.6989C42.6989 31.5101 33.4745 22.2857 22.0995 22.2857V23.2857ZM12.7996 11.986C12.7996 6.85062 16.9621 2.68625 22.0993 2.68625V1.68625C16.4097 1.68625 11.7996 6.29847 11.7996 11.986H12.7996ZM22.0993 21.2857C16.962 21.2857 12.7996 17.1233 12.7996 11.986H11.7996C11.7996 17.6755 16.4097 22.2857 22.0993 22.2857V21.2857ZM31.399 11.986C31.399 17.1231 27.2346 21.2857 22.0993 21.2857V22.2857C27.7868 22.2857 32.399 17.6755 32.399 11.986H31.399ZM22.0993 2.68625C27.2345 2.68625 31.399 6.85075 31.399 11.986H32.399C32.399 6.29847 27.7868 1.68625 22.0993 1.68625V2.68625ZM22.0993 0.686249C15.8573 0.686249 10.7996 5.74631 10.7996 11.986H11.7996C11.7996 6.29847 16.4097 1.68625 22.0993 1.68625V0.686249ZM33.399 11.986C33.399 5.74618 28.3391 0.686249 22.0993 0.686249V1.68625C27.7868 1.68625 32.399 6.29847 32.399 11.986H33.399ZM22.0993 23.2857C28.339 23.2857 33.399 18.228 33.399 11.986H32.399C32.399 17.6755 27.7868 22.2857 22.0993 22.2857V23.2857ZM10.7996 11.986C10.7996 18.2278 15.8574 23.2857 22.0993 23.2857V22.2857C16.4097 22.2857 11.7996 17.6755 11.7996 11.986H10.7996Z" fill="#E3AA1C"/>
</svg>
