<svg width="20" height="20" viewBox="0 0 20 20" fill="none" xmlns="http://www.w3.org/2000/svg">
<path d="M11.7118 9.23127L11.2618 9.4492V9.4492L11.7118 9.23127ZM10.8118 9.66713L11.2618 9.4492L11.2618 9.4492L10.8118 9.66713ZM9.2 19C9.2 16.5706 11.1706 14.6 13.6 14.6V13.6C10.6183 13.6 8.2 16.0183 8.2 19H9.2ZM8.2 20C8.75228 20 9.2 19.5523 9.2 19H8.2V20ZM7.2 19C7.2 19.5523 7.64772 20 8.2 20V19H7.2ZM13.6 12.6C10.066 12.6 7.2 15.466 7.2 19H8.2C8.2 16.0183 10.6183 13.6 13.6 13.6V12.6ZM20 19C20 15.466 17.134 12.6 13.6 12.6V13.6C16.5817 13.6 19 16.0183 19 19H20ZM19 20C19.5523 20 20 19.5523 20 19H19V20ZM18 19C18 19.5523 18.4477 20 19 20V19H18ZM13.6 14.6C16.0294 14.6 18 16.5706 18 19H19C19 16.0183 16.5817 13.6 13.6 13.6V14.6ZM11.9 10.9C11.9 9.96167 12.6612 9.2 13.6 9.2V8.2C12.1087 8.2 10.9 9.40959 10.9 10.9H11.9ZM13.6 12.6C12.661 12.6 11.9 11.839 11.9 10.9H10.9C10.9 12.3913 12.1087 13.6 13.6 13.6V12.6ZM15.3 10.9C15.3 11.8388 14.5383 12.6 13.6 12.6V13.6C15.0904 13.6 16.3 12.3913 16.3 10.9H15.3ZM13.6 9.2C14.5381 9.2 15.3 9.96188 15.3 10.9H16.3C16.3 9.4096 15.0904 8.2 13.6 8.2V9.2ZM13.6 7.2C11.5562 7.2 9.9 8.85754 9.9 10.9H10.9C10.9 9.40959 12.1087 8.2 13.6 8.2V7.2ZM17.3 10.9C17.3 8.85732 15.6427 7.2 13.6 7.2V8.2C15.0904 8.2 16.3 9.4096 16.3 10.9H17.3ZM13.6 14.6C15.6425 14.6 17.3 12.9438 17.3 10.9H16.3C16.3 12.3913 15.0904 13.6 13.6 13.6V14.6ZM9.9 10.9C9.9 12.9436 11.5564 14.6 13.6 14.6V13.6C12.1087 13.6 10.9 12.3913 10.9 10.9H9.9ZM2 11.8C2 9.37059 3.97058 7.4 6.4 7.4V6.4C3.4183 6.4 1 8.8183 1 11.8H2ZM1 12.8C1.55228 12.8 2 12.3523 2 11.8H1V12.8ZM0 11.8C0 12.3523 0.447715 12.8 1 12.8V11.8H0ZM6.4 5.4C2.86602 5.4 0 8.26602 0 11.8H1C1 8.8183 3.4183 6.4 6.4 6.4V5.4ZM12.1618 9.01333C11.1273 6.87723 8.93729 5.4 6.4 5.4V6.4C8.53922 6.4 10.3879 7.64462 11.2618 9.4492L12.1618 9.01333ZM11.6977 10.3492C12.1947 10.1085 12.4025 9.5104 12.1618 9.01333L11.2618 9.4492V9.4492L11.6977 10.3492ZM10.3618 9.88507C10.6025 10.3821 11.2006 10.5899 11.6977 10.3492L11.2618 9.4492L11.2618 9.4492L10.3618 9.88507ZM6.4 7.4C8.14149 7.4 9.64856 8.41234 10.3618 9.88507L11.2618 9.4492C10.3879 7.64461 8.5392 6.4 6.4 6.4V7.4ZM4.7 3.7C4.7 2.76168 5.46119 2 6.4 2V1C4.90871 1 3.7 2.20959 3.7 3.7H4.7ZM6.4 5.4C5.46098 5.4 4.7 4.63902 4.7 3.7H3.7C3.7 5.1913 4.9087 6.4 6.4 6.4V5.4ZM8.1 3.7C8.1 4.63881 7.33833 5.4 6.4 5.4V6.4C7.89041 6.4 9.1 5.19129 9.1 3.7H8.1ZM6.4 2C7.33812 2 8.1 2.76188 8.1 3.7H9.1C9.1 2.2096 7.8904 1 6.4 1V2ZM6.4 0C4.35619 0 2.7 1.65754 2.7 3.7H3.7C3.7 2.20959 4.90871 1 6.4 1V0ZM10.1 3.7C10.1 1.65732 8.44268 0 6.4 0V1C7.8904 1 9.1 2.2096 9.1 3.7H10.1ZM6.4 7.4C8.44246 7.4 10.1 5.74381 10.1 3.7H9.1C9.1 5.19129 7.89041 6.4 6.4 6.4V7.4ZM2.7 3.7C2.7 5.74359 4.35642 7.4 6.4 7.4V6.4C4.9087 6.4 3.7 5.1913 3.7 3.7H2.7Z" fill="#7F919B"/>
</svg>
