<svg width="10" height="9" viewBox="0 0 10 9" fill="none" xmlns="http://www.w3.org/2000/svg">
<path d="M9.35355 4.53553L9 4.18198L9.35355 4.53553ZM9.5 4.18198H9H9.5ZM8.29289 4.18198L8.64645 4.53553C8.84171 4.34027 8.84171 4.02369 8.64645 3.82843L8.29289 4.18198ZM9.35355 3.82843L9 4.18198L9.35355 3.82843ZM1 3.18198C0.447715 3.18198 0 3.6297 0 4.18198H1V3.18198ZM9 3.18198H1V4.18198H9V3.18198ZM10 4.18198C10 3.6297 9.55228 3.18198 9 3.18198V4.18198H10ZM9 5.18198C9.55228 5.18198 10 4.73427 10 4.18198H9V5.18198ZM1 5.18198H9V4.18198H1V5.18198ZM0 4.18198C0 4.73427 0.447715 5.18198 1 5.18198V4.18198H0ZM9.70711 4.88909C9.89464 4.70155 10 4.4472 10 4.18198H9L9.70711 4.88909ZM6.52513 8.07107L9.70711 4.88909L9 4.18198L5.81802 7.36396L6.52513 8.07107ZM5.11091 8.07107C5.50144 8.46159 6.1346 8.46159 6.52513 8.07107L5.81802 7.36396L5.11091 8.07107ZM5.11091 6.65685C4.72039 7.04738 4.72039 7.68054 5.11091 8.07107L5.81802 7.36396L5.11091 6.65685ZM7.93934 3.82843L5.11091 6.65685L5.81802 7.36396L8.64645 4.53553L7.93934 3.82843ZM5.11091 1.70711L7.93934 4.53553L8.64645 3.82843L5.81802 1L5.11091 1.70711ZM5.11091 0.292893C4.72039 0.683418 4.72039 1.31658 5.11091 1.70711L5.81802 1V1L5.11091 0.292893ZM6.52513 0.292893C6.1346 -0.0976312 5.50144 -0.0976309 5.11091 0.292893L5.81802 1L6.52513 0.292893ZM9.70711 3.47487L6.52513 0.292893L5.81802 1L9 4.18198L9.70711 3.47487ZM10 4.18198C10 3.91676 9.89464 3.66241 9.70711 3.47487L9 4.18198H10Z" fill="#311B92"/>
</svg>
