

<svg width="16" height="50" viewBox="0 -16 16 45" fill="none" xmlns="http://www.w3.org/2000/svg">
<path fill-rule="evenodd" clip-rule="evenodd" d="M15.6313 6.3946C15.6313 7.24085 14.8868 7.92686 13.9684 7.92686L7.08033 7.92686C6.16192 7.92686 5.41741 7.24085 5.41741 6.3946C5.41741 5.54836 6.16192 4.86234 7.08033 4.86234L13.9684 4.86234C14.8868 4.86234 15.6313 5.54836 15.6313 6.3946ZM13.0779 2.10428C13.0779 2.95052 12.3264 3.63654 11.3994 3.63654L2.62732 3.63654C1.7003 3.63654 0.948809 2.95052 0.948809 2.10428C0.948809 1.25804 1.7003 0.572021 2.62732 0.572021L11.3994 0.572021C12.3264 0.572021 13.0779 1.25804 13.0779 2.10428ZM11.3615 11.6043C12.3094 11.6043 13.0779 10.9183 13.0779 10.072C13.0779 9.22578 12.3094 8.53976 11.3615 8.53976H3.94192C2.99399 8.53976 2.22555 9.22578 2.22555 10.072C2.22555 10.9183 2.99399 11.6043 3.94192 11.6043H11.3615Z" fill="#FDF9EF"/>
</svg>
