<svg width="22" height="18" viewBox="0 0 22 18" fill="none" xmlns="http://www.w3.org/2000/svg">
<path d="M21.3536 9.30851L21 8.95495L21.3536 9.30851ZM21.3536 8.6014L21 8.95495L21.3536 8.6014ZM20.2929 8.95495L20.6464 9.30851C20.8417 9.11324 20.8417 8.79666 20.6464 8.6014L20.2929 8.95495ZM1 7.95495C0.447715 7.95495 0 8.40267 0 8.95495H1V7.95495ZM21 7.95495H1V8.95495H21V7.95495ZM22 8.95495C22 8.40267 21.5523 7.95495 21 7.95495V8.95495H22ZM21 9.95495C21.5523 9.95495 22 9.50724 22 8.95495H21V9.95495ZM1 9.95495H21V8.95495H1V9.95495ZM0 8.95495C0 9.50724 0.447715 9.95495 1 9.95495V8.95495H0ZM21.7071 9.66206C22.0976 9.27153 22.0976 8.63837 21.7071 8.24784L21 8.95495L21.7071 9.66206ZM13.7522 17.617L21.7071 9.66206L21 8.95495L13.045 16.9099L13.7522 17.617ZM12.3379 17.617C12.7285 18.0075 13.3616 18.0075 13.7522 17.617L13.045 16.9099L12.3379 17.617ZM12.3379 16.2028C11.9474 16.5933 11.9474 17.2265 12.3379 17.617L13.045 16.9099L12.3379 16.2028ZM19.9393 8.6014L12.3379 16.2028L13.045 16.9099L20.6464 9.30851L19.9393 8.6014ZM12.3379 1.70711L19.9393 9.30851L20.6464 8.6014L13.045 1L12.3379 1.70711ZM12.3379 0.292893C11.9474 0.683418 11.9474 1.31658 12.3379 1.70711L13.045 1V1L12.3379 0.292893ZM13.7522 0.292893C13.3616 -0.0976306 12.7285 -0.0976311 12.3379 0.292893L13.045 1L13.7522 0.292893ZM21.7071 8.24784L13.7522 0.292893L13.045 1L21 8.95495L21.7071 8.24784Z" fill="black"/>
</svg>
