<svg width="22" height="22" viewBox="0 0 22 22" fill="none" xmlns="http://www.w3.org/2000/svg">
<path d="M2 21C2 16.0302 6.02935 12 11 12V11C5.477 11 1 15.478 1 21H2ZM1 22C1.55228 22 2 21.5523 2 21H1V22ZM0 21C0 21.5523 0.447715 22 1 22V21H0ZM11 10C4.92465 10 0 14.9258 0 21H1C1 15.478 5.477 11 11 11V10ZM22 21C22 14.9257 17.0743 10 11 10V11C16.522 11 21 15.478 21 21H22ZM21 22C21.5523 22 22 21.5523 22 21H21V22ZM20 21C20 21.5523 20.4477 22 21 22V21H20ZM11 12C15.9697 12 20 16.0303 20 21H21C21 15.478 16.522 11 11 11V12ZM7 6C7 3.79116 8.79041 2 11 2V1C8.238 1 6 3.239 6 6H7ZM11 10C8.79028 10 7 8.20972 7 6H6C6 8.762 8.238 11 11 11V10ZM15 6C15 8.20959 13.2088 10 11 10V11C13.761 11 16 8.762 16 6H15ZM11 2C13.2087 2 15 3.79128 15 6H16C16 3.239 13.761 1 11 1V2ZM11 0C7.68558 0 5 2.68685 5 6H6C6 3.239 8.238 1 11 1V0ZM17 6C17 2.68672 14.3133 0 11 0V1C13.761 1 16 3.239 16 6H17ZM11 12C14.3132 12 17 9.31442 17 6H16C16 8.762 13.761 11 11 11V12ZM5 6C5 9.31428 7.68572 12 11 12V11C8.238 11 6 8.762 6 6H5Z" fill="black"/>
</svg>
