<svg width="22" height="22" viewBox="0 0 22 22" fill="none" xmlns="http://www.w3.org/2000/svg">
<path d="M20.5 1.5H21C21 1.22386 20.7761 1 20.5 1V1.5ZM1.5 1.5V1C1.22386 1 1 1.22386 1 1.5H1.5ZM1.35355 0.646447L1 1L1 1L1.35355 0.646447ZM0.646447 0.646447L1 1L1 1L0.646447 0.646447ZM11 10.2929L10.6464 10.6464C10.8417 10.8417 11.1583 10.8417 11.3536 10.6464L11 10.2929ZM20.6464 0.646447L20.2929 0.292893L20.2929 0.292893L20.6464 0.646447ZM21.3536 0.646447L21.7071 0.292894L21.7071 0.292893L21.3536 0.646447ZM21.3536 1.35355L21.7071 1.70711V1.70711L21.3536 1.35355ZM11.3536 11.3536L11.7071 11.7071L11.7071 11.7071L11.3536 11.3536ZM10.6464 11.3536L10.2929 11.7071L10.2929 11.7071L10.6464 11.3536ZM0.646447 1.35355L1 1L1 1L0.646447 1.35355ZM15 0C14.4477 0 14 0.447715 14 1H15V0ZM21 0H15V1H21V0ZM22 1C22 0.447715 21.5523 0 21 0V1H22ZM22 7V1H21V7H22ZM21 8C21.5523 8 22 7.55229 22 7H21V8ZM20 7C20 7.55229 20.4477 8 21 8V7H20ZM20 1.5V7H21V1.5H20ZM15 2H20.5V1H15V2ZM14 1C14 1.55228 14.4477 2 15 2V1H14ZM1 0C0.447715 0 0 0.447715 0 1H1V0ZM7 0H1V1H7V0ZM8 1C8 0.447715 7.55229 0 7 0V1H8ZM7 2C7.55229 2 8 1.55228 8 1H7V2ZM1.5 2H7V1H1.5V2ZM2 7V1.5H1V7H2ZM1 8C1.55228 8 2 7.55229 2 7H1V8ZM0 7C0 7.55229 0.447715 8 1 8V7H0ZM0 1V7H1V1H0ZM1.70711 0.292893C1.31658 -0.0976311 0.683417 -0.0976311 0.292893 0.292893L1 1H1L1.70711 0.292893ZM11.3536 9.93934L1.70711 0.292893L1 1L10.6464 10.6464L11.3536 9.93934ZM20.2929 0.292893L10.6464 9.93934L11.3536 10.6464L21 1L20.2929 0.292893ZM21.7071 0.292893C21.3166 -0.0976309 20.6834 -0.0976309 20.2929 0.292893L21 1H21L21.7071 0.292893ZM21.7071 1.70711C22.0976 1.31658 22.0976 0.683418 21.7071 0.292894L21 0.999999V1L21.7071 1.70711ZM11.7071 11.7071L21.7071 1.70711L21 1L11 11L11.7071 11.7071ZM10.2929 11.7071C10.6834 12.0976 11.3166 12.0976 11.7071 11.7071L11 11H11L10.2929 11.7071ZM0.292893 1.70711L10.2929 11.7071L11 11L1 1L0.292893 1.70711ZM0.292893 0.292893C-0.0976311 0.683417 -0.0976311 1.31658 0.292893 1.70711L1 1V1L0.292893 0.292893ZM12 11C12 10.4477 11.5523 10 11 10V11H12ZM12 21V11H11V21H12ZM11 22C11.5523 22 12 21.5523 12 21H11V22ZM10 21C10 21.5523 10.4477 22 11 22V21H10ZM10 11V21H11V11H10ZM11 10C10.4477 10 10 10.4477 10 11H11V10Z" fill="#311B92"/>
</svg>
