<svg width="32" height="26" viewBox="0 0 32 26" fill="none" xmlns="http://www.w3.org/2000/svg">
<path d="M1.25725 5.07125L1 5.5H1L1.25725 5.07125ZM0.571254 5.24275L1 5.5H1L0.571254 5.24275ZM16 13.9169L15.7428 14.3457C15.9011 14.4407 16.0989 14.4407 16.2572 14.3457L16 13.9169ZM30.7428 5.07125L31 5.5L30.7428 5.07125ZM31.4287 5.24275L31.8575 4.98551L31.8575 4.9855L31.4287 5.24275ZM31.2572 5.92875L31.5145 6.35749L31.2572 5.92875ZM16.2572 14.9287L16 14.5L16.2572 14.9287ZM15.7428 14.9287L16 14.5L15.7428 14.9287ZM0.742752 5.92875L1 5.5H1L0.742752 5.92875ZM1.5145 4.64251C1.04092 4.35836 0.426655 4.51192 0.142507 4.9855L1 5.5H1L1.5145 4.64251ZM16.2572 13.4882L1.5145 4.64251L1 5.5L15.7428 14.3457L16.2572 13.4882ZM30.4855 4.64251L15.7428 13.4882L16.2572 14.3457L31 5.5L30.4855 4.64251ZM31.8575 4.9855C31.5733 4.51192 30.9591 4.35836 30.4855 4.64251L31 5.5L31 5.5L31.8575 4.9855ZM31.5145 6.35749C31.9881 6.07334 32.1416 5.45908 31.8575 4.98551L31 5.5V5.5L31.5145 6.35749ZM16.5145 15.3575L31.5145 6.35749L31 5.5L16 14.5L16.5145 15.3575ZM15.4855 15.3575C15.8022 15.5475 16.1978 15.5475 16.5145 15.3575L16 14.5L15.4855 15.3575ZM0.485504 6.35749L15.4855 15.3575L16 14.5L1 5.5L0.485504 6.35749ZM0.142507 4.9855C-0.141641 5.45908 0.011924 6.07334 0.485504 6.35749L1 5.5H1L0.142507 4.9855ZM2 5.5C2 3.56678 3.56678 2 5.5 2V1C3.0145 1 1 3.0145 1 5.5H2ZM2 20.5V5.5H1V20.5H2ZM5.5 24C3.56678 24 2 22.4332 2 20.5H1C1 22.9855 3.0145 25 5.5 25V24ZM26.5 24H5.5V25H26.5V24ZM30 20.5C30 22.4332 28.4332 24 26.5 24V25C28.9855 25 31 22.9855 31 20.5H30ZM30 5.5V20.5H31V5.5H30ZM26.5 2C28.4332 2 30 3.56678 30 5.5H31C31 3.0145 28.9855 1 26.5 1V2ZM5.5 2H26.5V1H5.5V2ZM5.5 0C2.46222 0 0 2.46222 0 5.5H1C1 3.0145 3.0145 1 5.5 1V0ZM26.5 0H5.5V1H26.5V0ZM32 5.5C32 2.46222 29.5378 0 26.5 0V1C28.9855 1 31 3.0145 31 5.5H32ZM32 20.5V5.5H31V20.5H32ZM26.5 26C29.5378 26 32 23.5378 32 20.5H31C31 22.9855 28.9855 25 26.5 25V26ZM5.5 26H26.5V25H5.5V26ZM0 20.5C0 23.5378 2.46222 26 5.5 26V25C3.0145 25 1 22.9855 1 20.5H0ZM0 5.5V20.5H1V5.5H0Z" fill="#0082B3"/>
</svg>
