<svg width="32" height="32" viewBox="0 0 32 32" fill="none" xmlns="http://www.w3.org/2000/svg">
<path d="M1 13H0.5C0.5 13.2761 0.723858 13.5 1 13.5V13ZM31 13V13.5C31.2761 13.5 31.5 13.2761 31.5 13H31ZM31 9H31.5C31.5 8.81534 31.3982 8.64572 31.2353 8.55882L31 9ZM16 1L16.2353 0.558824C16.0882 0.480392 15.9118 0.480392 15.7647 0.558824L16 1ZM1 9L0.764706 8.55882C0.601774 8.64572 0.5 8.81534 0.5 9H1ZM6.38003 13C6.38003 12.7239 6.15617 12.5 5.88003 12.5C5.60389 12.5 5.38003 12.7239 5.38003 13H6.38003ZM5.38003 25C5.38003 25.2761 5.60389 25.5 5.88003 25.5C6.15617 25.5 6.38003 25.2761 6.38003 25H5.38003ZM13.13 13C13.13 12.7239 12.9062 12.5 12.63 12.5C12.3539 12.5 12.13 12.7239 12.13 13H13.13ZM12.13 25C12.13 25.2761 12.3539 25.5 12.63 25.5C12.9062 25.5 13.13 25.2761 13.13 25H12.13ZM19.88 13C19.88 12.7239 19.6562 12.5 19.38 12.5C19.1039 12.5 18.88 12.7239 18.88 13H19.88ZM18.88 25C18.88 25.2761 19.1039 25.5 19.38 25.5C19.6562 25.5 19.88 25.2761 19.88 25H18.88ZM26.63 13C26.63 12.7239 26.4062 12.5 26.13 12.5C25.8539 12.5 25.63 12.7239 25.63 13H26.63ZM25.63 25C25.63 25.2761 25.8539 25.5 26.13 25.5C26.4062 25.5 26.63 25.2761 26.63 25H25.63ZM0.646447 31.3536L1 31H1L0.646447 31.3536ZM1.5 30.5H1C1 30.7761 1.22386 31 1.5 31V30.5ZM1.5 25.5V25C1.22386 25 1 25.2239 1 25.5H1.5ZM30.5 30.5V31C30.7761 31 31 30.7761 31 30.5H30.5ZM30.5 25.5H31C31 25.2239 30.7761 25 30.5 25V25.5ZM1 13.5H31V12.5H1V13.5ZM31.5 13V9H30.5V13H31.5ZM31.2353 8.55882L16.2353 0.558824L15.7647 1.44118L30.7647 9.44118L31.2353 8.55882ZM15.7647 0.558824L0.764706 8.55882L1.23529 9.44118L16.2353 1.44118L15.7647 0.558824ZM0.5 9V13H1.5V9H0.5ZM5.38003 13V25H6.38003V13H5.38003ZM12.13 13V25H13.13V13H12.13ZM18.88 13V25H19.88V13H18.88ZM25.63 13V25H26.63V13H25.63ZM1 24C0.447715 24 0 24.4477 0 25H1V24ZM31 24H1V25H31V24ZM32 25C32 24.4477 31.5523 24 31 24V25H32ZM32 31V25H31V31H32ZM31 32C31.5523 32 32 31.5523 32 31H31V32ZM1 32H31V31H1V32ZM0.292893 31.7071C0.480429 31.8946 0.734783 32 1 32V31H1L0.292893 31.7071ZM0 31C0 31.2652 0.105357 31.5196 0.292893 31.7071L1 31H1H0ZM0 25V31H1V25H0ZM2 30.5V25.5H1V30.5H2ZM30.5 30H1.5V31H30.5V30ZM30 25.5V30.5H31V25.5H30ZM1.5 26H30.5V25H1.5V26Z" fill="#B33900"/>
</svg>
