<svg width="32" height="32" viewBox="0 0 32 32" fill="none" xmlns="http://www.w3.org/2000/svg">
<path d="M2 31C2 23.2692 8.26785 17 16 17V16C7.7155 16 1 22.717 1 31H2ZM1 32C1.55228 32 2 31.5523 2 31H1V32ZM0 31C0 31.5523 0.447715 32 1 32V31H0ZM16 15C7.16315 15 0 22.1648 0 31H1C1 22.717 7.7155 16 16 16V15ZM32 31C32 22.1647 24.8353 15 16 15V16C24.283 16 31 22.717 31 31H32ZM31 32C31.5523 32 32 31.5523 32 31H31V32ZM30 31C30 31.5523 30.4477 32 31 32V31H30ZM16 17C23.7307 17 30 23.2693 30 31H31C31 22.717 24.283 16 16 16V17ZM9.5 8.5C9.5 4.91066 12.4094 2 16 2V1C11.857 1 8.5 4.3585 8.5 8.5H9.5ZM16 15C12.4093 15 9.5 12.0907 9.5 8.5H8.5C8.5 12.643 11.857 16 16 16V15ZM22.5 8.5C22.5 12.0906 19.5893 15 16 15V16C20.1415 16 23.5 12.643 23.5 8.5H22.5ZM16 2C19.5892 2 22.5 4.91078 22.5 8.5H23.5C23.5 4.3585 20.1415 1 16 1V2ZM16 0C11.3046 0 7.5 3.80635 7.5 8.5H8.5C8.5 4.3585 11.857 1 16 1V0ZM24.5 8.5C24.5 3.80622 20.6938 0 16 0V1C20.1415 1 23.5 4.3585 23.5 8.5H24.5ZM16 17C20.6937 17 24.5 13.1954 24.5 8.5H23.5C23.5 12.643 20.1415 16 16 16V17ZM7.5 8.5C7.5 13.1953 11.3047 17 16 17V16C11.857 16 8.5 12.643 8.5 8.5H7.5Z" fill="#4300B3"/>
</svg>
