<svg width="27" height="34" viewBox="0 0 27 34" fill="none" xmlns="http://www.w3.org/2000/svg">
<path d="M6.89639 20.439C6.70116 20.6343 6.70121 20.9509 6.8965 21.1461C7.09179 21.3413 7.40837 21.3413 7.60361 21.146L6.89639 20.439ZM11.4163 16.625L11.7698 16.2714C11.676 16.1777 11.5488 16.125 11.4162 16.125C11.2836 16.125 11.1564 16.1777 11.0626 16.2715L11.4163 16.625ZM15.5837 20.7925L15.2302 21.1461C15.324 21.2398 15.4512 21.2925 15.5838 21.2925C15.7164 21.2925 15.8436 21.2398 15.9374 21.146L15.5837 20.7925ZM20.1036 16.9785C20.2988 16.7832 20.2988 16.4666 20.1035 16.2714C19.9082 16.0762 19.5916 16.0762 19.3964 16.2715L20.1036 16.9785ZM16.9786 0.646447L16.625 1V1L16.9786 0.646447ZM26.3536 10.0214L26.7071 9.66789L26.7071 9.66789L26.3536 10.0214ZM1.5 31.75H1C1 32.0261 1.22386 32.25 1.5 32.25V31.75ZM1.5 1.5V1C1.22386 1 1 1.22386 1 1.5H1.5ZM25.5 31.75V32.25C25.7761 32.25 26 32.0261 26 31.75H25.5ZM25.5 10.5821H26C26 10.4495 25.9473 10.3223 25.8536 10.2286L25.5 10.5821ZM16.4179 1.5L16.7714 1.14645C16.6777 1.05268 16.5505 1 16.4179 1V1.5ZM17.125 9.875H16.625C16.625 10.1511 16.8489 10.375 17.125 10.375V9.875ZM7.60361 21.146L11.7699 16.9785L11.0626 16.2715L6.89639 20.439L7.60361 21.146ZM11.0627 16.9786L15.2302 21.1461L15.9373 20.4389L11.7698 16.2714L11.0627 16.9786ZM15.9374 21.146L20.1036 16.9785L19.3964 16.2715L15.2301 20.439L15.9374 21.146ZM1 0C0.447715 0 0 0.447715 0 1H1V0ZM16.625 0H1V1H16.625V0ZM17.3321 0.292893C17.1446 0.105357 16.8902 0 16.625 0V1V1L17.3321 0.292893ZM26.7071 9.66789L17.3321 0.292893L16.625 1L26 10.375L26.7071 9.66789ZM27 10.375C27 10.1098 26.8946 9.85543 26.7071 9.66789L26 10.375L26 10.375H27ZM27 32.25V10.375H26V32.25H27ZM26 33.25C26.5523 33.25 27 32.8023 27 32.25H26V33.25ZM1 33.25H26V32.25H1V33.25ZM0 32.25C0 32.8023 0.447715 33.25 1 33.25V32.25H0ZM0 1V32.25H1V1H0ZM2 31.75V1.5H1V31.75H2ZM25.5 31.25H1.5V32.25H25.5V31.25ZM25 10.5821V31.75H26V10.5821H25ZM16.0643 1.85355L25.1464 10.9357L25.8536 10.2286L16.7714 1.14645L16.0643 1.85355ZM1.5 2H16.4179V1H1.5V2ZM17.625 1C17.625 0.447715 17.1773 0 16.625 0V1H17.625ZM17.625 9.875V1H16.625V9.875H17.625ZM26 9.375H17.125V10.375H26V9.375ZM27 10.375C27 9.82272 26.5523 9.375 26 9.375V10.375H27ZM26 11.375C26.5523 11.375 27 10.9273 27 10.375H26V11.375ZM16.625 11.375H26V10.375H16.625V11.375ZM15.625 10.375C15.625 10.9273 16.0727 11.375 16.625 11.375V10.375H15.625ZM15.625 1V10.375H16.625V1H15.625ZM16.625 0C16.0727 0 15.625 0.447715 15.625 1H16.625V0Z" fill="#179B97"/>
</svg>
