<svg width="12" height="11" viewBox="0 0 12 11" fill="none" xmlns="http://www.w3.org/2000/svg">
<path opacity="0.5" fill-rule="evenodd" clip-rule="evenodd" d="M11.1427 9.86619V1.56261C11.1427 1.0135 10.7007 0.571533 10.1516 0.571533H1.84801C1.2989 0.571533 0.856934 1.0135 0.856934 1.56261V9.86619C0.856934 10.4153 1.2989 10.8573 1.84801 10.8573H10.1516C10.7007 10.8573 11.1427 10.4153 11.1427 9.86619ZM10.2855 9.86619V1.56261C10.2855 1.48895 10.2252 1.42868 10.1516 1.42868H9.9373L7.40605 3.14296L5.9998 1.99787L4.59355 3.14296L2.06229 1.42868H1.84801C1.77435 1.42868 1.71408 1.48895 1.71408 1.56261V9.86619C1.71408 9.93985 1.77435 10.0001 1.84801 10.0001H10.1516C10.2252 10.0001 10.2855 9.93985 10.2855 9.86619ZM4.3056 4.10725V4.9577H2.6181V4.10725H4.3056ZM4.3056 5.81484V6.67199H2.6181V5.81484H4.3056ZM9.3815 8.38627V7.52913H7.09801V8.38627H9.3815ZM9.3815 5.81484V6.67199H4.88149V5.81484H9.3815ZM9.3815 4.9577V4.10725H4.88149V4.9577H9.3815ZM5.7989 1.42868L4.56006 2.43314L3.08015 1.42868H5.7989ZM7.43953 2.43314L8.91944 1.42868H6.20069L7.43953 2.43314Z" fill="#7F919B"/>
</svg>
