<svg width="12" height="11" viewBox="0 0 12 11" fill="none" xmlns="http://www.w3.org/2000/svg">
<path opacity="0.5" fill-rule="evenodd" clip-rule="evenodd" d="M9.00015 3.99997C9.17426 3.99997 9.32828 3.89283 9.39524 3.73211C9.4622 3.57809 9.42872 3.39059 9.30149 3.27006L6.30149 0.270055C6.22113 0.183001 6.10729 0.142822 6.00015 0.142822C5.893 0.142822 5.77916 0.183001 5.69881 0.270055L2.6988 3.27006C2.57157 3.39059 2.53809 3.57809 2.60505 3.73211C2.67202 3.89283 2.82604 3.99997 3.00014 3.99997H4.71443V6.99997C4.71443 7.23435 4.90863 7.42854 5.143 7.42854H6.85729C7.09167 7.42854 7.28586 7.23435 7.28586 6.99997V3.99997H9.00015ZM11.5716 8.0714V10.2143C11.5716 10.5692 11.2836 10.8571 10.9287 10.8571H1.07157C0.716658 10.8571 0.428711 10.5692 0.428711 10.2143V8.0714C0.428711 7.71649 0.716658 7.42854 1.07157 7.42854H3.93095C4.11175 7.92408 4.5872 8.28569 5.143 8.28569H6.85729C7.41309 8.28569 7.88854 7.92408 8.06934 7.42854H10.9287C11.2836 7.42854 11.5716 7.71649 11.5716 8.0714ZM8.57158 9.14283C8.80595 9.14283 9.00015 9.33703 9.00015 9.57141C9.00015 9.80578 8.80595 9.99998 8.57158 9.99998C8.3372 9.99998 8.14301 9.80578 8.14301 9.57141C8.14301 9.33703 8.3372 9.14283 8.57158 9.14283ZM10.2859 9.14283C10.5202 9.14283 10.7144 9.33703 10.7144 9.57141C10.7144 9.80578 10.5202 9.99998 10.2859 9.99998C10.0515 9.99998 9.85729 9.80578 9.85729 9.57141C9.85729 9.33703 10.0515 9.14283 10.2859 9.14283Z" fill="#7F919B"/>
</svg>
