<svg width="12" height="16" viewBox="0 0 12 16" fill="none" xmlns="http://www.w3.org/2000/svg">
<path fill-rule="evenodd" clip-rule="evenodd" d="M11.6719 4.71875C11.8906 4.9375 12 5.19792 12 5.5V8.4375C12 8.59375 11.9453 8.72656 11.8359 8.83594C11.7266 8.94531 11.5938 9 11.4375 9C11.2812 9 11.1484 8.94531 11.0391 8.83594C10.9297 8.72656 10.875 8.59375 10.875 8.4375V6H7.125C6.8125 6 6.54688 5.89063 6.32812 5.67188C6.10937 5.45312 6 5.1875 6 4.875V1.125H1.125V14.875H4.4375C4.59375 14.875 4.72656 14.9297 4.83594 15.0391C4.94531 15.1484 5 15.2812 5 15.4375C5 15.5938 4.94531 15.7266 4.83594 15.8359C4.72656 15.9453 4.59375 16 4.4375 16H1.125C0.812498 16 0.546876 15.8906 0.328125 15.6719C0.109374 15.4531 0 15.1875 0 14.875V1.125C0 0.812498 0.109374 0.546876 0.328125 0.328125C0.546876 0.109374 0.812498 0 1.125 0H6.53125C6.6875 0 6.83854 0.0312497 6.98438 0.09375C7.00521 0.104167 7.02083 0.114583 7.03125 0.125C7.05208 0.125 7.07292 0.135417 7.09375 0.15625C7.1875 0.208334 7.26562 0.265625 7.32812 0.328125L11.6719 4.71875ZM11.4375 12C11.5938 12 11.7266 12.0547 11.8359 12.1641C11.9453 12.2734 12 12.4062 12 12.5625C12 12.7188 11.9453 12.8516 11.8359 12.9609C11.7266 13.0703 11.5938 13.125 11.4375 13.125H9V15.4375C9 15.5938 8.94531 15.7266 8.83594 15.8359C8.72656 15.9453 8.59375 16 8.4375 16C8.28125 16 8.14844 15.9453 8.03906 15.8359C7.92969 15.7266 7.875 15.5938 7.875 15.4375V13.125H5.5625C5.40625 13.125 5.27344 13.0703 5.16406 12.9609C5.05469 12.8516 5 12.7188 5 12.5625C5 12.4062 5.05469 12.2734 5.16406 12.1641C5.27344 12.0547 5.40625 12 5.5625 12H7.875V9.5625C7.875 9.40625 7.92969 9.27344 8.03906 9.16406C8.14844 9.05469 8.28125 9 8.4375 9C8.59375 9 8.72656 9.05469 8.83594 9.16406C8.94531 9.27344 9 9.40625 9 9.5625V12H11.4375ZM10.25 4.875H7.125V1.71875L10.25 4.875Z" fill="white"/>
</svg>
