<svg width="26" height="25" viewBox="0 0 26 25" fill="none" xmlns="http://www.w3.org/2000/svg">
<path d="M15.0504 7.55476L14.6968 7.90827L15.0504 7.55476ZM14.3433 7.55468L14.6968 7.90827L14.3433 7.55468ZM20.141 12.6465L20.4946 12.293V12.293L20.141 12.6465ZM20.141 13.3535L20.4946 13.707V13.707L20.141 13.3535ZM15.0504 18.4452L15.404 18.7988L15.404 18.7987L15.0504 18.4452ZM14.3432 17.7382L14.6968 18.0917V18.0917L14.3432 17.7382ZM19.0803 13L19.4339 13.3535C19.6291 13.1583 19.6291 12.8417 19.4339 12.6465L19.0803 13ZM14.3432 8.26178L14.6968 7.90827L14.3432 8.26178ZM4.86814 4.86814L4.51459 4.51459L4.86814 4.86814ZM21.1319 4.86814L20.7783 5.22169L21.1319 4.86814ZM4.86814 21.1319L5.22355 20.7802L5.22169 20.7783L4.86814 21.1319ZM4.86819 21.1319L4.51278 21.4836L4.51459 21.4854L4.86819 21.1319ZM21.1318 21.1319L20.7783 20.7784L20.7782 20.7784L21.1318 21.1319ZM21.1319 21.1319L20.7783 20.7783L21.1319 21.1319ZM21.839 4.16103L22.1925 3.80748V3.80748L21.839 4.16103ZM21.839 21.8389L22.1926 22.1925L22.1926 22.1925L21.839 21.8389ZM21.839 21.839L21.4854 22.1925C21.6807 22.3878 21.9973 22.3878 22.1925 22.1925L21.839 21.839ZM4.16103 21.839L3.80748 22.1925C3.95048 22.3355 4.16554 22.3783 4.35238 22.3009C4.53921 22.2235 4.66103 22.0412 4.66103 21.839H4.16103ZM6.21143 12C5.65915 12 5.21143 12.4477 5.21143 13H6.21143V12ZM19.7874 12H6.21143V13H19.7874V12ZM20.7874 13C20.7874 12.4477 20.3397 12 19.7874 12V13H20.7874ZM19.7874 14C20.3397 14 20.7874 13.5523 20.7874 13H19.7874V14ZM6.21143 14H19.7874V13H6.21143V14ZM5.21143 13C5.21143 13.5523 5.65915 14 6.21143 14V13H5.21143ZM15.404 7.20125C15.0136 6.81068 14.3804 6.8106 13.9898 7.20108L14.6968 7.90827L15.404 7.20125ZM20.4946 12.293L15.404 7.20125L14.6968 7.90827L19.7874 13L20.4946 12.293ZM20.4946 13.707C20.885 13.3165 20.885 12.6835 20.4946 12.293L19.7874 13V13L20.4946 13.707ZM15.404 18.7987L20.4946 13.707L19.7874 13L14.6968 18.0917L15.404 18.7987ZM13.9898 18.7989C14.3804 19.1894 15.0136 19.1893 15.404 18.7988L14.6968 18.0917L13.9898 18.7989ZM13.9897 17.3847C13.5992 17.7753 13.5992 18.4084 13.9898 18.7989L14.6968 18.0917V18.0917L13.9897 17.3847ZM18.7268 12.6465L13.9897 17.3847L14.6968 18.0917L19.4339 13.3535L18.7268 12.6465ZM13.9897 8.6153L18.7268 13.3535L19.4339 12.6465L14.6968 7.90827L13.9897 8.6153ZM13.9898 7.20108C13.5992 7.59156 13.5992 8.22473 13.9897 8.6153L14.6968 7.90827L13.9898 7.20108ZM5.22169 5.22169C9.51729 0.926102 16.4827 0.926102 20.7783 5.22169L21.4854 4.51459C16.7993 -0.171529 9.20071 -0.171529 4.51459 4.51459L5.22169 5.22169ZM5.22169 20.7783C0.926102 16.4827 0.926102 9.51729 5.22169 5.22169L4.51459 4.51459C-0.171529 9.20071 -0.171529 16.7993 4.51459 21.4854L5.22169 20.7783ZM5.22359 20.7802L5.22354 20.7802L4.51274 21.4836L4.51279 21.4836L5.22359 20.7802ZM20.7782 20.7784C16.4826 25.0751 9.51736 25.0751 5.22179 20.7784L4.51459 21.4854C9.20071 26.1727 16.7993 26.1727 21.4854 21.4854L20.7782 20.7784ZM20.7783 20.7783L20.7783 20.7784L21.4854 21.4855L21.4854 21.4854L20.7783 20.7783ZM20.7783 5.22169C25.0739 9.51729 25.0739 16.4827 20.7783 20.7783L21.4854 21.4854C26.1715 16.7993 26.1715 9.20071 21.4854 4.51459L20.7783 5.22169ZM22.1925 3.80748C17.1159 -1.26916 8.88412 -1.26916 3.80748 3.80748L4.51459 4.51459C9.2007 -0.171529 16.7993 -0.171529 21.4854 4.51459L22.1925 3.80748ZM22.1926 22.1925C27.2692 17.1158 27.2691 8.88411 22.1925 3.80748L21.4854 4.51459C26.1715 9.20069 26.1715 16.7992 21.4855 21.4854L22.1926 22.1925ZM22.1925 22.1925V22.1925C22.1925 22.1925 22.1925 22.1925 22.1925 22.1925C22.1925 22.1925 22.1925 22.1925 22.1925 22.1925C22.1925 22.1925 22.1925 22.1925 22.1925 22.1925C22.1925 22.1925 22.1925 22.1925 22.1925 22.1925H22.1925V22.1925C22.1925 22.1925 22.1925 22.1925 22.1925 22.1925C22.1925 22.1925 22.1925 22.1925 22.1925 22.1925C22.1925 22.1925 22.1925 22.1925 22.1925 22.1925C22.1925 22.1925 22.1925 22.1925 22.1925 22.1925H22.1925V22.1925C22.1925 22.1925 22.1925 22.1925 22.1925 22.1925C22.1925 22.1925 22.1925 22.1925 22.1925 22.1925C22.1925 22.1925 22.1925 22.1925 22.1925 22.1925C22.1925 22.1925 22.1925 22.1925 22.1925 22.1925H22.1925V22.1925C22.1925 22.1925 22.1925 22.1925 22.1925 22.1925C22.1925 22.1925 22.1925 22.1925 22.1925 22.1925C22.1925 22.1925 22.1925 22.1925 22.1925 22.1925C22.1925 22.1925 22.1925 22.1925 22.1925 22.1925H22.1925V22.1925C22.1925 22.1925 22.1925 22.1925 22.1925 22.1925C22.1925 22.1925 22.1925 22.1925 22.1925 22.1925C22.1925 22.1925 22.1925 22.1925 22.1925 22.1925C22.1925 22.1925 22.1925 22.1925 22.1925 22.1925H22.1925V22.1925C22.1925 22.1925 22.1925 22.1925 22.1926 22.1925C22.1926 22.1925 22.1926 22.1925 22.1926 22.1925C22.1926 22.1925 22.1926 22.1925 22.1926 22.1925C22.1926 22.1925 22.1926 22.1925 22.1926 22.1925H22.1926V22.1925C22.1926 22.1925 22.1926 22.1925 22.1926 22.1925C22.1926 22.1925 22.1926 22.1925 22.1926 22.1925C22.1926 22.1925 22.1926 22.1925 22.1926 22.1925C22.1926 22.1925 22.1926 22.1925 22.1926 22.1925H22.1926V22.1925C22.1926 22.1925 22.1926 22.1925 22.1926 22.1925C22.1926 22.1925 22.1926 22.1925 22.1926 22.1925C22.1926 22.1925 22.1926 22.1925 22.1926 22.1925C22.1926 22.1925 22.1926 22.1925 22.1926 22.1925H22.1926L21.4855 21.4854V21.4854C21.4855 21.4854 21.4855 21.4854 21.4855 21.4854C21.4855 21.4854 21.4855 21.4854 21.4855 21.4854C21.4855 21.4854 21.4855 21.4854 21.4855 21.4854C21.4855 21.4854 21.4855 21.4854 21.4855 21.4854H21.4855V21.4854C21.4855 21.4854 21.4855 21.4854 21.4855 21.4854C21.4855 21.4854 21.4855 21.4854 21.4855 21.4854C21.4854 21.4854 21.4854 21.4854 21.4854 21.4854C21.4854 21.4854 21.4854 21.4854 21.4854 21.4854H21.4854V21.4854C21.4854 21.4854 21.4854 21.4854 21.4854 21.4854C21.4854 21.4854 21.4854 21.4854 21.4854 21.4854C21.4854 21.4854 21.4854 21.4854 21.4854 21.4854C21.4854 21.4854 21.4854 21.4854 21.4854 21.4854H21.4854V21.4854C21.4854 21.4854 21.4854 21.4854 21.4854 21.4854C21.4854 21.4854 21.4854 21.4854 21.4854 21.4854C21.4854 21.4854 21.4854 21.4854 21.4854 21.4854C21.4854 21.4854 21.4854 21.4854 21.4854 21.4854H21.4854V21.4854C21.4854 21.4854 21.4854 21.4854 21.4854 21.4854C21.4854 21.4854 21.4854 21.4854 21.4854 21.4854C21.4854 21.4854 21.4854 21.4854 21.4854 21.4854C21.4854 21.4854 21.4854 21.4854 21.4854 21.4854H21.4854V21.4854C21.4854 21.4854 21.4854 21.4854 21.4854 21.4854C21.4854 21.4854 21.4854 21.4854 21.4854 21.4854C21.4854 21.4854 21.4854 21.4854 21.4854 21.4854C21.4854 21.4854 21.4854 21.4854 21.4854 21.4854H21.4854V21.4854C21.4854 21.4854 21.4854 21.4854 21.4854 21.4854C21.4854 21.4854 21.4854 21.4854 21.4854 21.4854C21.4854 21.4854 21.4854 21.4854 21.4854 21.4854C21.4854 21.4854 21.4854 21.4854 21.4854 21.4854H21.4854V21.4854C21.4854 21.4854 21.4854 21.4854 21.4854 21.4854C21.4854 21.4854 21.4854 21.4854 21.4854 21.4854C21.4854 21.4854 21.4854 21.4854 21.4854 21.4854C21.4854 21.4854 21.4854 21.4854 21.4854 21.4854H21.4854L22.1925 22.1925ZM22.1925 21.4854L4.51459 3.80748L3.80748 4.51459L21.4854 22.1925L22.1925 21.4854ZM3.80748 3.80748C-1.26916 8.88412 -1.26916 17.1159 3.80748 22.1925L4.51459 21.4854C-0.171529 16.7993 -0.171529 9.2007 4.51459 4.51459L3.80748 3.80748ZM3.66103 4.16103V21.839H4.66103V4.16103H3.66103Z" fill="#311B92"/>
</svg>
