<svg width="37" height="37" viewBox="0 0 37 37" fill="none" xmlns="http://www.w3.org/2000/svg">
<path d="M29 24.8345C29.2761 24.8345 29.5 24.6106 29.5 24.3345C29.5 24.0584 29.2761 23.8345 29 23.8345V24.8345ZM19.0828 1L19.0831 0.5H19.0828V1ZM24.3345 6.25H24.8345V6.2497L24.3345 6.25ZM23.8345 8C23.8345 8.27614 24.0584 8.5 24.3345 8.5C24.6106 8.5 24.8345 8.27614 24.8345 8H23.8345ZM24.4046 19.0319C24.2093 18.8367 23.8927 18.8367 23.6974 19.0319C23.5022 19.2272 23.5022 19.5438 23.6974 19.7391L24.4046 19.0319ZM29 24.3345L29.3536 24.688C29.5488 24.4927 29.5488 24.1762 29.3536 23.9809L29 24.3345ZM23.6974 28.9318C23.5022 29.1271 23.5022 29.4436 23.6975 29.6389C23.8928 29.8341 24.2094 29.834 24.4046 29.6387L23.6974 28.9318ZM12.5972 17.9698C12.7925 18.1651 13.109 18.1651 13.3043 17.9698C13.4996 17.7745 13.4996 17.458 13.3043 17.2627L12.5972 17.9698ZM8 12.6655L7.64651 12.3119C7.55271 12.4056 7.50001 12.5328 7.5 12.6655C7.49999 12.7981 7.55267 12.9253 7.64645 13.0191L8 12.6655ZM13.3042 8.07012C13.4995 7.87489 13.4996 7.55831 13.3044 7.36301C13.1091 7.16771 12.7926 7.16766 12.5973 7.36288L13.3042 8.07012ZM8.00004 12.1655C7.7239 12.1655 7.50002 12.3893 7.5 12.6655C7.49998 12.9416 7.72382 13.1655 7.99996 13.1655L8.00004 12.1655ZM30.75 12.6672L30.75 13.1672H30.75V12.6672ZM12.6672 30.75L13.1673 30.75L13.1672 30.7495L12.6672 30.75ZM13.1655 28.9995C13.1652 28.7234 12.9411 28.4997 12.665 28.5C12.3889 28.5003 12.1652 28.7244 12.1655 29.0005L13.1655 28.9995ZM29 23.8345H6.25V24.8345H29V23.8345ZM6.25 23.8345C3.6265 23.8345 1.5 21.7065 1.5 19.0845H0.5C0.5 22.2585 3.074 24.8345 6.25 24.8345V23.8345ZM1.5 19.0845V6.25H0.5V19.0845H1.5ZM1.5 6.25C1.5 3.62639 3.62639 1.5 6.25 1.5V0.5C3.07411 0.5 0.5 3.07411 0.5 6.25H1.5ZM6.25 1.5H19.0828V0.5H6.25V1.5ZM19.0824 1.5C21.7064 1.50158 23.8329 3.62832 23.8345 6.2503L24.8345 6.2497C24.8326 3.07568 22.2586 0.501917 19.0831 0.5L19.0824 1.5ZM23.8345 6.25V8H24.8345V6.25H23.8345ZM23.6974 19.7391L28.6464 24.6881L29.3536 23.9809L24.4046 19.0319L23.6974 19.7391ZM28.6464 23.981L23.6974 28.9318L24.4046 29.6387L29.3536 24.688L28.6464 23.981ZM13.3043 17.2627L8.35355 12.3119L7.64645 13.0191L12.5972 17.9698L13.3043 17.2627ZM8.35349 13.0191L13.3042 8.07012L12.5973 7.36288L7.64651 12.3119L8.35349 13.0191ZM7.99996 13.1655L30.75 13.1672L30.75 12.1672L8.00004 12.1655L7.99996 13.1655ZM30.75 13.1672C33.3736 13.1672 35.5 15.2936 35.5 17.9172H36.5C36.5 14.7414 33.9259 12.1672 30.75 12.1672V13.1672ZM35.5 17.9172V30.75H36.5V17.9172H35.5ZM35.5 30.75C35.5 33.3736 33.3736 35.5 30.75 35.5V36.5C33.9259 36.5 36.5 33.9259 36.5 30.75H35.5ZM30.75 35.5H17.9172V36.5H30.75V35.5ZM17.9172 35.5C15.2936 35.5 13.1672 33.3736 13.1672 30.75H12.1672C12.1672 33.9259 14.7414 36.5 17.9172 36.5V35.5ZM13.1672 30.7495L13.1655 28.9995L12.1655 29.0005L12.1673 30.7505L13.1672 30.7495Z" fill="#311B92"/>
</svg>
