<?xml version="1.0" encoding="UTF-8"?>
<svg width="22px" height="22px" viewBox="0 0 22 22" version="1.1" xmlns="http://www.w3.org/2000/svg" xmlns:xlink="http://www.w3.org/1999/xlink">
    <!-- Generator: Sketch 54.1 (76490) - https://sketchapp.com -->
    <title>Path</title>
    <desc>Created with Sketch.</desc>
    <g id="Page-1" stroke="none" stroke-width="1" fill="none" fill-rule="evenodd" stroke-linecap="round" stroke-linejoin="round">
        <path d="M1,11 L1,5 L5.5,5 L5.5,4 C5.5,2.343 6.843,1 8.5,1 C10.157,1 11.5,2.343 11.5,4 L11.5,5 L16,5 L16,11 L18,11 C19.657,11 21,12.343 21,14 C21,15.657 19.657,17 18,17 L16,17 L16,21 L1,21 L1,17 L3,17 C4.657,17 6,15.657 6,14 C6,12.343 4.657,11 3,11 L1,11 Z" id="Path" stroke="#000000"></path>
    </g>
</svg>