<?xml version="1.0" encoding="UTF-8"?>
<svg width="22px" height="22px" viewBox="0 0 22 22" version="1.1" xmlns="http://www.w3.org/2000/svg" xmlns:xlink="http://www.w3.org/1999/xlink">
    <!-- Generator: Sketch 54.1 (76490) - https://sketchapp.com -->
    <title>Path</title>
    <desc>Created with Sketch.</desc>
    <g id="Page-1" stroke="none" stroke-width="1" fill="none" fill-rule="evenodd" stroke-linecap="round" stroke-linejoin="round">
        <path d="M11,14 C12.6568542,14 14,12.6568542 14,11 C14,9.34314575 12.6568542,8 11,8 C9.34314575,8 8,9.34314575 8,11 C8,12.6568542 9.34314575,14 11,14 Z M21,12.3333333 L21,9.66666667 L18.135,9.30866667 C17.9552843,8.54589589 17.6535068,7.81717251 17.2413333,7.15066667 L19.0136667,4.872 L17.128,2.98633333 L14.8493333,4.75866667 C14.1825227,4.34746588 13.4538695,4.04628023 12.6913333,3.86666667 L12.3333333,1 L9.66666667,1 L9.30866667,3.86666667 C8.54589589,4.04638239 7.81717251,4.34815987 7.15066667,4.76033333 L4.872,2.98633333 L2.98633333,4.872 L4.75866667,7.15066667 C4.34746588,7.81747728 4.04628023,8.54613047 3.86666667,9.30866667 L1,9.66666667 L1,12.3333333 L3.86666667,12.6913333 C4.04638239,13.4541041 4.34815987,14.1828275 4.76033333,14.8493333 L2.98633333,17.128 L4.872,19.0136667 L7.15066667,17.2413333 C7.81737202,17.653117 8.54603036,17.9548676 9.30866667,18.135 L9.66666667,21 L12.3333333,21 L12.6913333,18.135 C13.4541041,17.9552843 14.1828275,17.6535068 14.8493333,17.2413333 L17.128,19.0136667 L19.0136667,17.128 L17.2413333,14.8493333 C17.653117,14.182628 17.9548676,13.4539696 18.135,12.6913333 L21,12.3333333 Z" id="Path" stroke="#000000"></path>
    </g>
</svg>