<svg width="18" height="18" viewBox="0 0 18 18" fill="none" xmlns="http://www.w3.org/2000/svg">
<path d="M5.8 7.9C6.07614 7.9 6.3 7.67614 6.3 7.4C6.3 7.12386 6.07614 6.9 5.8 6.9V7.9ZM12.2 6.9C11.9239 6.9 11.7 7.12386 11.7 7.4C11.7 7.67614 11.9239 7.9 12.2 7.9V6.9ZM8.5 13.8C8.5 14.0761 8.72386 14.3 9 14.3C9.27614 14.3 9.5 14.0761 9.5 13.8H8.5ZM9.5 1C9.5 0.723858 9.27614 0.5 9 0.5C8.72386 0.5 8.5 0.723858 8.5 1H9.5ZM11.8464 4.55355C12.0417 4.74882 12.3583 4.74882 12.5536 4.55355C12.7488 4.35829 12.7488 4.04171 12.5536 3.84645L11.8464 4.55355ZM9 1L9.35355 0.646447C9.15829 0.451184 8.84171 0.451184 8.64645 0.646447L9 1ZM5.44645 3.84645C5.25118 4.04171 5.25118 4.35829 5.44645 4.55355C5.64171 4.74882 5.95829 4.74882 6.15355 4.55355L5.44645 3.84645ZM5.8 6.9H3.4V7.9H5.8V6.9ZM3.4 6.9C1.79826 6.9 0.5 8.19826 0.5 9.8H1.5C1.5 8.75054 2.35054 7.9 3.4 7.9V6.9ZM0.5 9.8V14.6H1.5V9.8H0.5ZM0.5 14.6C0.5 16.2017 1.79826 17.5 3.4 17.5V16.5C2.35054 16.5 1.5 15.6495 1.5 14.6H0.5ZM3.4 17.5H14.6V16.5H3.4V17.5ZM14.6 17.5C16.2017 17.5 17.5 16.2017 17.5 14.6H16.5C16.5 15.6495 15.6495 16.5 14.6 16.5V17.5ZM17.5 14.6V9.8H16.5V14.6H17.5ZM17.5 9.8C17.5 8.19826 16.2017 6.9 14.6 6.9V7.9C15.6495 7.9 16.5 8.75054 16.5 9.8H17.5ZM14.6 6.9H12.2V7.9H14.6V6.9ZM9.5 13.8V1H8.5V13.8H9.5ZM12.5536 3.84645L9.35355 0.646447L8.64645 1.35355L11.8464 4.55355L12.5536 3.84645ZM8.64645 0.646447L5.44645 3.84645L6.15355 4.55355L9.35355 1.35355L8.64645 0.646447Z" fill="white"/>
</svg>
