<?xml version="1.0" encoding="UTF-8"?>
<svg width="22px" height="18px" viewBox="0 0 22 18" version="1.1" xmlns="http://www.w3.org/2000/svg" xmlns:xlink="http://www.w3.org/1999/xlink">
    <!-- Generator: Sketch 54.1 (76490) - https://sketchapp.com -->
    <title>Combined Shape</title>
    <desc>Created with Sketch.</desc>
    <g id="Page-1" stroke="none" stroke-width="1" fill="none" fill-rule="evenodd" stroke-linecap="round" stroke-linejoin="round">
        <path d="M19,8 L21,8 L21,12 L19,12 C17.8954305,12 17,11.1045695 17,10 L17,10 C17,8.8954305 17.8954305,8 19,8 Z M19,1 L3,1 C1.8954305,1 1,1.8954305 1,3 L17,3 C18.6568542,3 20,4.34314575 20,6 L20,8 M20,12 L20,14 C20,15.6568542 18.6568542,17 17,17 L4,17 C2.34314575,17 1,15.6568542 1,14 L1,3" id="Combined-Shape" stroke="#000000"></path>
    </g>
</svg>