<svg width="13" height="13" viewBox="0 0 13 13" fill="none" xmlns="http://www.w3.org/2000/svg">
<path d="M9.8 8.8337C10.0761 8.8337 10.3 8.60984 10.3 8.3337C10.3 8.05756 10.0761 7.8337 9.8 7.8337V8.8337ZM6.68315 1L6.68345 0.5H6.68315V1ZM8.3337 2.65H8.8337V2.6497L8.3337 2.65ZM7.8337 3.2C7.8337 3.47614 8.05756 3.7 8.3337 3.7C8.60984 3.7 8.8337 3.47614 8.8337 3.2H7.8337ZM8.59815 6.42475C8.40289 6.22948 8.08631 6.22948 7.89105 6.42475C7.69578 6.62001 7.69578 6.93659 7.89105 7.13185L8.59815 6.42475ZM9.8 8.3337L10.1536 8.68719C10.3488 8.49192 10.3488 8.17538 10.1536 7.98015L9.8 8.3337ZM7.89098 9.53616C7.69576 9.73146 7.69581 10.048 7.89111 10.2433C8.08641 10.4385 8.40299 10.4384 8.59822 10.2431L7.89098 9.53616ZM4.4024 6.5758C4.59766 6.77107 4.91424 6.77107 5.1095 6.5758C5.30477 6.38054 5.30477 6.06396 5.1095 5.8687L4.4024 6.5758ZM3.2 4.6663L2.84651 4.31268C2.75271 4.40645 2.70001 4.53363 2.7 4.66626C2.69999 4.79888 2.75267 4.92607 2.84645 5.01985L3.2 4.6663ZM5.10944 3.46452C5.30474 3.26929 5.30479 2.95271 5.10957 2.75741C4.91434 2.56211 4.59776 2.56206 4.40246 2.75728L5.10944 3.46452ZM3.20004 4.1663C2.9239 4.16628 2.70002 4.39012 2.7 4.66626C2.69998 4.9424 2.92382 5.16628 3.19996 5.1663L3.20004 4.1663ZM10.35 4.66685L10.35 5.16685H10.35V4.66685ZM4.66685 10.35H5.16685L5.16685 10.3495L4.66685 10.35ZM5.1663 9.7995C5.16602 9.52336 4.94194 9.29972 4.6658 9.3C4.38966 9.30028 4.16602 9.52436 4.1663 9.8005L5.1663 9.7995ZM9.8 7.8337H2.65V8.8337H9.8V7.8337ZM2.65 7.8337C2.0149 7.8337 1.5 7.31847 1.5 6.6837H0.5C0.5 7.87053 1.4624 8.8337 2.65 8.8337V7.8337ZM1.5 6.6837V2.65H0.5V6.6837H1.5ZM1.5 2.65C1.5 2.01479 2.01479 1.5 2.65 1.5V0.5C1.46251 0.5 0.5 1.46251 0.5 2.65H1.5ZM2.65 1.5H6.68315V0.5H2.65V1.5ZM6.68285 1.5C7.3184 1.50038 7.83332 2.01552 7.8337 2.6503L8.8337 2.6497C8.83298 1.46288 7.8706 0.500717 6.68345 0.5L6.68285 1.5ZM7.8337 2.65V3.2H8.8337V2.65H7.8337ZM7.89105 7.13185L9.44645 8.68725L10.1536 7.98015L8.59815 6.42475L7.89105 7.13185ZM9.44638 7.98021L7.89098 9.53616L8.59822 10.2431L10.1536 8.68719L9.44638 7.98021ZM5.1095 5.8687L3.55355 4.31275L2.84645 5.01985L4.4024 6.5758L5.1095 5.8687ZM3.55349 5.01992L5.10944 3.46452L4.40246 2.75728L2.84651 4.31268L3.55349 5.01992ZM3.19996 5.1663L10.35 5.16685L10.35 4.16685L3.20004 4.1663L3.19996 5.1663ZM10.35 5.16685C10.9852 5.16685 11.5 5.68164 11.5 6.31685H12.5C12.5 5.12936 11.5375 4.16685 10.35 4.16685V5.16685ZM11.5 6.31685V10.35H12.5V6.31685H11.5ZM11.5 10.35C11.5 10.9852 10.9852 11.5 10.35 11.5V12.5C11.5375 12.5 12.5 11.5375 12.5 10.35H11.5ZM10.35 11.5H6.31685V12.5H10.35V11.5ZM6.31685 11.5C5.68164 11.5 5.16685 10.9852 5.16685 10.35H4.16685C4.16685 11.5375 5.12936 12.5 6.31685 12.5V11.5ZM5.16685 10.3495L5.1663 9.7995L4.1663 9.8005L4.16685 10.3505L5.16685 10.3495Z" fill="white"/>
</svg>
